<?xml version="1.0" encoding="UTF-8" standalone="no"?>
<!-- Created with Inkscape (http://www.inkscape.org/) -->

<svg
   version="1.1"
   id="svg2"
   width="388"
   height="180"
   viewBox="0 0 388 180"
   sodipodi:docname="Logo_Dresdenrb_Outline_1c_b_quer.eps"
   xmlns:inkscape="http://www.inkscape.org/namespaces/inkscape"
   xmlns:sodipodi="http://sodipodi.sourceforge.net/DTD/sodipodi-0.dtd"
   xmlns="http://www.w3.org/2000/svg"
   xmlns:svg="http://www.w3.org/2000/svg">
  <defs
     id="defs6" />
  <sodipodi:namedview
     id="namedview4"
     pagecolor="#ffffff"
     bordercolor="#000000"
     borderopacity="0.25"
     inkscape:showpageshadow="2"
     inkscape:pageopacity="0.0"
     inkscape:pagecheckerboard="0"
     inkscape:deskcolor="#d1d1d1" />
  <g
     id="g8"
     inkscape:groupmode="layer"
     inkscape:label="ink_ext_XXXXXX"
     transform="matrix(1.3333333,0,0,-1.3333333,0,180)">
    <g
       id="g10"
       transform="scale(0.1)">
      <path
         d="m 636.527,877.063 h -23.941 v 54.41 l 11.977,11.965 11.964,-11.965 z m 10.489,-5.247 v 61.829 l -1.536,3.71 -17.21,17.208 h -7.418 l -17.219,-17.208 -1.535,-3.71 v -61.829 l 5.242,-5.246 h 34.433 l 5.243,5.246"
         style="fill:#393536;fill-opacity:1;fill-rule:nonzero;stroke:none"
         id="path12" />
      <path
         d="m 688.465,485.344 -219.621,187.273 152.113,30.582 z m -258.508,-40.848 20.906,99.219 -0.664,3.832 -7.84,12.781 13.606,10.77 1.988,4.105 v 29.176 c 0,20.039 0.399,41.121 3.039,61.141 L 686.223,473.465 Z M 561.379,297.84 249.844,241.871 681.109,455 Z m -308.484,-24.051 1.027,3.109 v 65.743 l 20.508,17.961 1.793,3.945 v 34.898 L 348.555,363.098 337.246,296.77 231.301,244.41 Z m 63.339,173.621 1.465,3.637 v 69.187 l -1.535,3.707 -4.766,4.754 v 14.016 l 16.985,12.168 1.898,2.512 11.114,31.519 h 0.46 l 10.235,-31.398 1.937,-2.633 L 371,542.711 v -14.016 l -4.754,-4.754 -1.535,-3.707 0.07,-62.007 -14.383,-84.321 -70.703,35.539 z m 25.446,178.801 7.418,-16.852 -7.118,-16.769 h -0.707 l -7.101,16.758 z M 430.602,434.008 669.617,461.023 492.418,373.449 459.449,357.16 Z m -37.075,18.094 25.477,-17.055 30.988,-82.559 -9.875,-4.879 -91.242,-45.097 25.504,149.59 z M 550.23,802.098 615.484,712.801 463.875,682.32 c 10.027,46.68 35.629,82.098 86.355,119.778 z m 13.102,54.015 15.02,11.543 2.046,4.16 v 89.387 l -1.535,3.707 -8.215,8.211 22.813,22.684 1.527,3.269 2.633,30.516 18.859,16.98 1.516,5.42 -1.703,5.6 7.121,10.96 h 2.297 l 7.109,-10.95 -1.703,-5.61 1.516,-5.42 18.859,-16.98 2.645,-30.516 1.523,-3.269 22.809,-22.684 -8.219,-8.211 -1.535,-3.707 v -89.387 l 2.047,-4.16 13.453,-10.336 -60.781,-137.613 -66.575,91.102 z m 132.141,0.739 -1.602,6.277 -14.668,11.273 v 84.629 l 10.399,10.391 -0.012,7.43 -25.168,25.038 -2.652,30.67 -1.723,3.44 -17.93,16.14 1.446,4.75 -0.625,4.38 -7.59,11.69 v 40.39 l -0.797,2.78 -5.543,8.87 h -8.895 l -5.539,-8.87 -0.801,-2.78 v -40.38 l -7.601,-11.7 -0.621,-4.38 1.441,-4.75 -17.926,-16.14 -1.722,-3.44 -2.641,-30.67 -25.18,-25.038 -0.011,-7.43 10.398,-10.391 v -84.633 l -14.66,-11.269 -1.996,-3.414 -6.77,-47.379 C 488.988,770.203 461.551,730.727 452.063,676.539 l 0.011,-0.008 -0.023,-0.008 c -4.035,-23.457 -4.59,-48.535 -4.59,-72.144 v -26.633 l -15.266,-12.09 -1.207,-6.851 9.18,-14.969 -20.371,-96.695 -21.754,14.558 -2.918,0.891 h -19.926 v 55.473 l 4.754,4.753 1.535,3.707 v 18.879 l -2.191,4.266 -17.774,12.742 -9.125,27.895 7.243,17.312 -0.024,3.899 -11.113,25.23 -4.805,3.129 h -4.015 l -4.793,-3.113 -11.231,-25.231 -0.031,-3.914 7.195,-17.312 -9.886,-27.856 -17.836,-12.781 -2.192,-4.266 v -18.879 l 1.535,-3.707 4.766,-4.753 v -64.907 l -40.016,-41.57 -1.465,-3.637 v -41.027 l -20.507,-17.961 -1.793,-3.941 v -66.399 l -33.344,-45.351 5.152,-8.27 350.012,62.871 3.234,1.988 134.516,176.575 0.84,4.73 -73.688,237.789 65.321,147.899"
         style="fill:#393536;fill-opacity:1;fill-rule:nonzero;stroke:none"
         id="path14" />
      <path
         d="m 923.992,505.559 h -25.691 v 42.105 h 25.691 c 8.235,0 14.52,-1.738 18.856,-5.199 4.332,-3.473 6.504,-8.676 6.504,-15.61 0,-7.046 -2.172,-12.359 -6.504,-15.933 -4.336,-3.574 -10.621,-5.363 -18.856,-5.363 z m 40.391,-0.813 c 3.847,6.285 5.773,13.871 5.773,22.758 0,12.465 -4.004,22.105 -12.027,28.934 -8.024,6.835 -19.402,10.246 -34.137,10.246 H 876.52 V 452.887 h 21.781 v 33.488 h 25.691 c 1.836,0 3.192,0.055 4.059,0.164 l 19.676,-33.652 h 24.867 l -25.031,37.718 c 7.367,3.137 12.972,7.852 16.82,14.141"
         style="fill:#393536;fill-opacity:1;fill-rule:nonzero;stroke:none"
         id="path16" />
      <path
         d="m 1052.25,496.941 c 0,-7.148 -1.95,-13.062 -5.85,-17.714 -3.9,-4.661 -9.21,-7.047 -15.93,-7.157 -5.85,0 -10.44,1.731 -13.74,5.203 -3.3,3.461 -4.96,8.235 -4.96,14.301 v 48.285 h -21.29 v -54.461 c 0,-10.293 2.817,-18.425 8.454,-24.386 5.636,-5.957 13.326,-8.938 23.076,-8.938 14.31,0 24.39,5.629 30.24,16.906 v -16.093 h 21.3 v 86.972 h -21.3 v -42.918"
         style="fill:#393536;fill-opacity:1;fill-rule:nonzero;stroke:none"
         id="path18" />
      <path
         d="m 1163.93,477.68 c -4.55,-4.938 -10.4,-7.399 -17.56,-7.399 -7.25,0 -13.17,2.442 -17.72,7.321 -4.55,4.871 -6.83,11.214 -6.83,19.015 0,7.699 2.28,13.977 6.83,18.86 4.55,4.878 10.47,7.308 17.72,7.308 7.16,0 13.01,-2.43 17.56,-7.308 4.55,-4.883 6.83,-11.161 6.83,-18.86 0,-7.691 -2.28,-14.012 -6.83,-18.937 z m 8.7,57.222 c -6.24,3.739 -13.42,5.606 -21.54,5.606 -6.51,0 -12.22,-1.274 -17.15,-3.817 -4.94,-2.55 -8.97,-6.265 -12.12,-11.136 v 47.957 h -21.13 V 452.887 h 21.13 v 14.14 c 3.26,-4.871 7.38,-8.586 12.36,-11.129 4.98,-2.55 10.73,-3.824 17.24,-3.824 8.12,0 15.28,1.848 21.45,5.528 6.18,3.683 10.95,8.832 14.31,15.449 3.36,6.605 5.04,14.246 5.04,22.922 0,8.773 -1.71,16.523 -5.13,23.242 -3.41,6.715 -8.23,11.945 -14.46,15.687"
         style="fill:#393536;fill-opacity:1;fill-rule:nonzero;stroke:none"
         id="path20" />
      <path
         d="m 1239.85,476.621 -24.7,63.238 h -21.96 l 35.93,-85.507 -2.59,-5.688 c -2.72,-5.855 -6.94,-8.781 -12.69,-8.781 -1.95,0 -3.79,0.351 -5.53,1.055 -1.73,0.703 -3.63,1.816 -5.68,3.332 l -9.11,-16.094 c 3.36,-2.707 6.74,-4.684 10.16,-5.93 3.42,-1.25 7.24,-1.867 11.47,-1.867 6.93,0 12.92,1.812 17.95,5.441 5.05,3.629 8.92,9.028 11.63,16.172 l 39.02,97.867 h -21.3 l -22.6,-63.238"
         style="fill:#393536;fill-opacity:1;fill-rule:nonzero;stroke:none"
         id="path22" />
      <path
         d="m 1412,499.707 c 0,-9 -2.46,-16.039 -7.4,-21.137 -4.92,-5.09 -11.67,-7.64 -20.23,-7.64 -8.57,0 -15.4,2.55 -20.49,7.64 -5.09,5.098 -7.64,12.137 -7.64,21.137 v 66.977 h -21.78 v -66.977 c 0,-9.859 2,-18.453 6.02,-25.766 4,-7.312 9.77,-12.929 17.31,-16.832 7.53,-3.894 16.39,-5.847 26.58,-5.847 10.08,0 18.83,1.953 26.26,5.847 7.42,3.903 13.13,9.52 17.15,16.832 4,7.313 6.01,15.907 6.01,25.766 v 66.977 H 1412 v -66.977"
         style="fill:#393536;fill-opacity:1;fill-rule:nonzero;stroke:none"
         id="path24" />
      <path
         d="m 1504.51,500.273 c -3.9,1.79 -8.89,3.606 -14.96,5.45 -5.75,1.625 -9.95,3.168 -12.6,4.629 -2.66,1.464 -3.98,3.55 -3.98,6.265 0,2.598 1.06,4.52 3.17,5.77 2.11,1.246 4.96,1.871 8.53,1.871 3.79,0 7.94,-0.711 12.44,-2.121 4.5,-1.407 8.86,-3.356 13.09,-5.848 l 7.64,15.281 c -4.34,2.922 -9.29,5.2 -14.88,6.828 -5.58,1.625 -11.24,2.438 -16.98,2.438 -9.43,0 -17.26,-2.25 -23.5,-6.746 -6.23,-4.5 -9.34,-11.027 -9.34,-19.594 0,-5.519 1.35,-9.992 4.06,-13.41 2.71,-3.41 5.91,-5.961 9.59,-7.641 3.69,-1.683 8.46,-3.386 14.31,-5.117 6.07,-1.844 10.45,-3.523 13.17,-5.043 2.7,-1.515 4.06,-3.793 4.06,-6.828 0,-2.703 -1.16,-4.738 -3.49,-6.09 -2.34,-1.359 -5.45,-2.035 -9.36,-2.035 -4.87,0 -10.02,0.945 -15.43,2.848 -5.43,1.89 -10.08,4.519 -13.99,7.883 l -7.32,-14.797 c 4.45,-3.903 9.87,-6.907 16.26,-9.024 6.4,-2.113 12.95,-3.168 19.67,-3.168 9.86,0 18.05,2.278 24.55,6.828 6.51,4.551 9.76,11.059 9.76,19.512 0,5.738 -1.44,10.371 -4.31,13.895 -2.88,3.519 -6.26,6.179 -10.16,7.964"
         style="fill:#393536;fill-opacity:1;fill-rule:nonzero;stroke:none"
         id="path26" />
      <path
         d="m 1550.18,503.117 c 0.98,6.508 3.55,11.629 7.73,15.367 4.17,3.739 9.34,5.61 15.52,5.61 6.61,0 11.92,-1.903 15.93,-5.696 4.02,-3.793 6.13,-8.882 6.35,-15.281 z m 23.09,37.391 c -8.57,0 -16.2,-1.867 -22.92,-5.606 -6.72,-3.742 -11.95,-8.972 -15.69,-15.687 -3.74,-6.719 -5.61,-14.414 -5.61,-23.086 0,-8.668 1.84,-16.34 5.53,-23 3.68,-6.664 8.91,-11.844 15.69,-15.527 6.77,-3.68 14.6,-5.528 23.48,-5.528 7.59,0 14.5,1.297 20.73,3.903 6.24,2.605 11.52,6.289 15.86,11.05 l -11.39,11.871 c -3.03,-3.144 -6.58,-5.55 -10.64,-7.234 -4.07,-1.68 -8.32,-2.519 -12.77,-2.519 -6.39,0 -11.78,1.761 -16.17,5.281 -4.39,3.519 -7.29,8.375 -8.69,14.554 h 64.21 c 0.1,1.407 0.16,3.52 0.16,6.333 0,14.312 -3.5,25.417 -10.48,33.332 -7,7.906 -17.43,11.863 -31.3,11.863"
         style="fill:#393536;fill-opacity:1;fill-rule:nonzero;stroke:none"
         id="path28" />
      <path
         d="m 1654.39,523.113 v 16.746 h -21.13 v -86.972 h 21.13 v 41.941 c 0,8.016 2.68,14.391 8.05,19.106 5.36,4.707 12.54,6.796 21.53,6.257 v 20.481 c -6.71,-0.109 -12.59,-1.649 -17.63,-4.629 -5.04,-2.988 -9.03,-7.297 -11.95,-12.93"
         style="fill:#393536;fill-opacity:1;fill-rule:nonzero;stroke:none"
         id="path30" />
      <path
         d="m 1772.17,543.52 c 6.01,3.41 12.6,5.121 19.75,5.121 5.74,0 11.46,-1.141 17.15,-3.418 5.69,-2.274 10.7,-5.473 15.04,-9.586 l 12.35,16.093 c -5.74,5.09 -12.57,9.102 -20.48,12.028 -7.92,2.926 -15.93,4.387 -24.06,4.387 -11.38,0 -21.76,-2.571 -31.13,-7.719 -9.38,-5.153 -16.78,-12.137 -22.19,-20.973 -5.43,-8.828 -8.13,-18.668 -8.13,-29.508 0,-10.84 2.66,-20.722 7.97,-29.664 5.31,-8.945 12.54,-16.015 21.7,-21.215 9.16,-5.203 19.32,-7.804 30.48,-7.804 7.8,0 15.77,1.383 23.89,4.144 8.13,2.77 15.18,6.364 21.13,10.817 v 43.238 h -19.01 v -31.375 c -3.91,-2.277 -8,-4.035 -12.27,-5.285 -4.29,-1.246 -8.38,-1.871 -12.27,-1.871 -7.27,0 -13.89,1.738 -19.85,5.207 -5.95,3.465 -10.69,8.179 -14.21,14.14 -3.53,5.957 -5.29,12.52 -5.29,19.668 0,7.047 1.74,13.547 5.2,19.512 3.47,5.961 8.21,10.645 14.23,14.063"
         style="fill:#393536;fill-opacity:1;fill-rule:nonzero;stroke:none"
         id="path32" />
      <path
         d="m 1881.17,523.113 v 16.746 h -21.13 v -86.972 h 21.13 v 41.941 c 0,8.016 2.68,14.391 8.05,19.106 5.36,4.707 12.54,6.796 21.53,6.257 v 20.481 c -6.72,-0.109 -12.6,-1.649 -17.63,-4.629 -5.05,-2.988 -9.03,-7.297 -11.95,-12.93"
         style="fill:#393536;fill-opacity:1;fill-rule:nonzero;stroke:none"
         id="path34" />
      <path
         d="m 1981.15,477.109 c -4.56,-4.875 -10.42,-7.312 -17.56,-7.312 -7.38,0 -13.34,2.437 -17.89,7.312 -4.55,4.879 -6.83,11.219 -6.83,19.02 0,7.805 2.28,14.144 6.83,19.016 4.55,4.882 10.51,7.32 17.89,7.32 7.14,0 13,-2.438 17.56,-7.32 4.55,-4.872 6.82,-11.211 6.82,-19.016 0,-7.801 -2.27,-14.141 -6.82,-19.02 z m 6.25,57.879 c -6.88,3.672 -14.82,5.52 -23.81,5.52 -9.11,0 -17.13,-1.848 -24.07,-5.52 -6.93,-3.691 -12.32,-8.863 -16.17,-15.535 -3.85,-6.66 -5.77,-14.324 -5.77,-23 0,-8.781 1.92,-16.531 5.77,-23.25 3.85,-6.715 9.24,-11.918 16.17,-15.601 6.94,-3.68 14.96,-5.528 24.07,-5.528 8.99,0 16.93,1.848 23.81,5.528 6.88,3.683 12.25,8.886 16.1,15.601 3.84,6.719 5.77,14.469 5.77,23.25 0,8.676 -1.93,16.34 -5.77,23 -3.85,6.672 -9.22,11.844 -16.1,15.535"
         style="fill:#393536;fill-opacity:1;fill-rule:nonzero;stroke:none"
         id="path36" />
      <path
         d="m 2086.65,496.941 c 0,-7.148 -1.96,-13.062 -5.86,-17.714 -3.89,-4.661 -9.21,-7.047 -15.93,-7.157 -5.85,0 -10.43,1.731 -13.73,5.203 -3.31,3.461 -4.96,8.235 -4.96,14.301 v 48.285 h -21.29 v -54.461 c 0,-10.293 2.81,-18.425 8.45,-24.386 5.63,-5.957 13.33,-8.938 23.08,-8.938 14.31,0 24.38,5.629 30.24,16.906 v -16.093 h 21.29 v 86.972 h -21.29 v -42.918"
         style="fill:#393536;fill-opacity:1;fill-rule:nonzero;stroke:none"
         id="path38" />
      <path
         d="m 2198.33,477.68 c -4.56,-4.938 -10.41,-7.399 -17.56,-7.399 -7.26,0 -13.17,2.442 -17.72,7.321 -4.55,4.871 -6.83,11.214 -6.83,19.015 0,7.699 2.28,13.977 6.83,18.86 4.55,4.878 10.46,7.308 17.72,7.308 7.15,0 13,-2.43 17.56,-7.308 4.55,-4.883 6.82,-11.161 6.82,-18.86 0,-7.691 -2.27,-14.012 -6.82,-18.937 z m 8.69,57.222 c -6.23,3.739 -13.41,5.606 -21.53,5.606 -6.51,0 -12.23,-1.274 -17.15,-3.817 -4.94,-2.55 -8.97,-6.265 -12.12,-11.136 v 14.304 h -21.13 V 421.348 h 21.13 v 45.679 c 3.25,-4.871 7.38,-8.586 12.36,-11.129 4.98,-2.55 10.73,-3.824 17.23,-3.824 8.13,0 15.28,1.848 21.46,5.528 6.17,3.683 10.94,8.832 14.31,15.449 3.35,6.605 5.03,14.246 5.03,22.922 0,8.773 -1.7,16.523 -5.12,23.242 -3.41,6.715 -8.23,11.945 -14.47,15.687"
         style="fill:#393536;fill-opacity:1;fill-rule:nonzero;stroke:none"
         id="path40" />
      <path
         d="m 1029.76,725.008 c -5.56,-10.473 -13.3,-18.637 -23.23,-24.508 -9.925,-5.875 -21.092,-8.809 -33.471,-8.809 h -45.805 v 139.02 h 43.559 c 12.816,0 24.289,-2.934 34.437,-8.809 10.14,-5.871 18.15,-14.144 24.03,-24.82 5.86,-10.684 8.8,-22.75 8.8,-36.203 0,-13.449 -2.77,-25.414 -8.32,-35.871 z m 3.2,134.051 c -17.94,9.5 -38.335,14.257 -61.187,14.257 h -95.136 v -224.23 h 93.222 c 23.274,0 43.981,4.75 62.141,14.258 18.14,9.496 32.3,22.742 42.44,39.719 10.15,16.98 15.22,36.359 15.22,58.136 0,21.781 -4.97,41.16 -14.9,58.141 -9.93,16.976 -23.87,30.215 -41.8,39.719"
         style="fill:#393536;fill-opacity:1;fill-rule:nonzero;stroke:none"
         id="path42" />
      <path
         d="m 1177.75,732.055 c 0,13.664 4.43,24.609 13.29,32.832 8.86,8.218 20.87,12.332 36.03,12.332 3.42,0 5.99,-0.11 7.7,-0.321 v 46.446 c -12.82,-0.211 -24.03,-3.098 -33.64,-8.653 -9.61,-5.55 -17.41,-13.668 -23.38,-24.343 v 31.07 h -49.33 V 649.086 h 49.33 v 82.969"
         style="fill:#393536;fill-opacity:1;fill-rule:nonzero;stroke:none"
         id="path44" />
      <path
         d="m 1315.64,776.738 c 7.16,6.727 16.07,10.09 26.75,10.09 11.32,0 20.39,-3.418 27.23,-10.254 6.83,-6.832 10.46,-15.906 10.89,-27.23 h -78.48 c 1.92,11.535 6.45,20.664 13.61,27.394 z m 69.52,-121.722 c 12.48,5.23 23.1,12.754 31.86,22.578 l -25.94,26.269 c -5.98,-5.984 -12.71,-10.519 -20.18,-13.617 -7.48,-3.098 -15.27,-4.644 -23.38,-4.644 -11.11,0 -20.62,3.05 -28.52,9.132 -7.9,6.086 -13.24,14.571 -16.01,25.465 h 123.65 c 0.21,2.778 0.32,6.727 0.32,11.856 0,28.613 -7.21,50.925 -21.63,66.941 -14.41,16.02 -35.5,24.027 -63.26,24.027 -17.3,0 -32.67,-3.683 -46.13,-11.05 -13.45,-7.368 -23.92,-17.731 -31.39,-31.071 -7.48,-13.351 -11.21,-28.781 -11.21,-46.293 0,-17.296 3.69,-32.562 11.05,-45.8 7.37,-13.243 17.82,-23.493 31.39,-30.75 13.56,-7.266 29.42,-10.895 47.57,-10.895 15.37,0 29.31,2.613 41.81,7.852"
         style="fill:#393536;fill-opacity:1;fill-rule:nonzero;stroke:none"
         id="path46" />
      <path
         d="m 1592.55,701.297 c 0,11.324 -2.87,20.449 -8.64,27.394 -5.77,6.938 -12.6,12.168 -20.5,15.696 -7.9,3.519 -17.94,7.093 -30.11,10.73 -11.11,3.199 -19.12,6.082 -24.03,8.649 -4.91,2.558 -7.36,6.187 -7.36,10.886 0,4.27 1.8,7.477 5.44,9.614 3.63,2.132 8.43,3.203 14.41,3.203 7.26,0 15.49,-1.446 24.67,-4.324 9.18,-2.883 18.47,-7 27.87,-12.332 l 16.98,33.636 c -9.61,6.184 -20.29,10.942 -32.03,14.246 -11.75,3.309 -23.5,4.969 -35.24,4.969 -19.65,0 -35.88,-4.699 -48.69,-14.094 -12.81,-9.398 -19.22,-22.64 -19.22,-39.718 0,-11.106 2.77,-20.129 8.32,-27.067 5.56,-6.945 12.23,-12.125 20.02,-15.539 7.8,-3.418 17.57,-6.836 29.31,-10.246 11.11,-3.207 19.17,-6.199 24.19,-8.969 5.02,-2.785 7.53,-6.625 7.53,-11.535 0,-4.48 -1.97,-7.844 -5.92,-10.09 -3.96,-2.246 -9.25,-3.363 -15.86,-3.363 -9.62,0 -19.81,1.863 -30.6,5.609 -10.78,3.731 -20.55,9.016 -29.3,15.852 l -16.02,-33.316 c 9.61,-7.688 20.92,-13.618 33.95,-17.778 13.03,-4.168 26.59,-6.246 40.68,-6.246 20.51,0 37.32,4.754 50.45,14.258 13.14,9.5 19.7,22.797 19.7,39.875"
         style="fill:#393536;fill-opacity:1;fill-rule:nonzero;stroke:none"
         id="path48" />
      <path
         d="m 1710.12,686.883 c -12.82,0 -23.23,4.433 -31.24,13.297 -8,8.859 -12.12,20.34 -12.33,34.429 0.21,14.102 4.33,25.575 12.33,34.446 8.01,8.851 18.42,13.285 31.24,13.285 12.59,0 22.9,-4.434 30.91,-13.285 8,-8.871 12.01,-20.344 12.01,-34.446 0,-14.089 -4.01,-25.57 -12.01,-34.429 -8.01,-8.864 -18.32,-13.297 -30.91,-13.297 z m 42.92,-12.488 v -25.309 h 49.01 v 237.68 h -49.01 v -90.645 c -12.81,18.141 -31.39,27.223 -55.74,27.223 -15.8,0 -29.79,-3.629 -41.96,-10.887 -12.17,-7.266 -21.57,-17.519 -28.19,-30.758 -6.62,-13.242 -9.93,-28.508 -9.93,-45.804 0,-17.512 3.36,-32.997 10.09,-46.446 6.73,-13.453 16.23,-23.867 28.51,-31.234 12.28,-7.367 26.53,-11.051 42.76,-11.051 11.74,0 22.21,2.289 31.4,6.891 9.18,4.59 16.86,11.371 23.06,20.34"
         style="fill:#393536;fill-opacity:1;fill-rule:nonzero;stroke:none"
         id="path50" />
      <path
         d="m 1891.74,749.344 c 1.92,11.535 6.45,20.664 13.61,27.394 7.15,6.727 16.07,10.09 26.75,10.09 11.32,0 20.39,-3.418 27.23,-10.254 6.83,-6.832 10.46,-15.906 10.89,-27.23 z m 40.04,73.679 c -17.3,0 -32.67,-3.683 -46.13,-11.05 -13.45,-7.368 -23.92,-17.731 -31.39,-31.071 -7.48,-13.351 -11.21,-28.781 -11.21,-46.293 0,-17.296 3.68,-32.562 11.05,-45.8 7.37,-13.243 17.82,-23.493 31.39,-30.75 13.56,-7.266 29.41,-10.895 47.57,-10.895 15.37,0 29.31,2.613 41.8,7.852 12.49,5.23 23.11,12.754 31.87,22.578 l -25.95,26.269 c -5.97,-5.984 -12.7,-10.519 -20.17,-13.617 -7.48,-3.098 -15.28,-4.644 -23.39,-4.644 -11.1,0 -20.61,3.05 -28.51,9.132 -7.9,6.086 -13.24,14.571 -16.01,25.465 h 123.64 c 0.22,2.778 0.33,6.727 0.33,11.856 0,28.613 -7.22,50.925 -21.63,66.941 -14.41,16.02 -35.5,24.027 -63.26,24.027"
         style="fill:#393536;fill-opacity:1;fill-rule:nonzero;stroke:none"
         id="path52" />
      <path
         d="m 2164.33,823.344 c -27.76,-0.434 -47.62,-11.106 -59.58,-32.035 v 30.109 h -49.33 V 649.086 h 49.33 v 84.887 c 0,12.816 3.52,23.328 10.57,31.554 7.05,8.219 16.66,12.434 28.83,12.653 10.46,0 18.74,-3.153 24.83,-9.45 6.08,-6.3 9.12,-14.894 9.12,-25.789 v -93.855 h 49.33 v 108.269 c 0,20.075 -5.71,36.09 -17.13,48.047 -11.43,11.957 -26.75,17.942 -45.97,17.942"
         style="fill:#393536;fill-opacity:1;fill-rule:nonzero;stroke:none"
         id="path54" />
      <path
         d="m 2419.95,790.348 v 31.07 h -49.33 V 649.086 h 49.33 v 82.969 c 0,13.664 4.43,24.609 13.29,32.832 8.86,8.218 20.87,12.332 36.03,12.332 3.42,0 5.99,-0.11 7.7,-0.321 v 46.446 c -12.82,-0.211 -24.03,-3.098 -33.64,-8.653 -9.61,-5.55 -17.4,-13.668 -23.38,-24.343"
         style="fill:#393536;fill-opacity:1;fill-rule:nonzero;stroke:none"
         id="path56" />
      <path
         d="m 2638.09,701.461 c -7.91,-8.859 -18.16,-13.297 -30.75,-13.297 -12.61,0 -22.91,4.371 -30.92,13.133 -8.01,8.758 -12.01,20.285 -12.01,34.598 0,13.882 4,25.25 12.01,34.113 8.01,8.859 18.31,13.293 30.92,13.293 12.59,0 22.84,-4.434 30.75,-13.293 7.89,-8.863 11.84,-20.231 11.84,-34.113 0,-14.094 -3.95,-25.575 -11.84,-34.434 z m 51.74,79.285 c -6.75,13.449 -16.24,23.859 -28.52,31.227 -12.28,7.367 -26.43,11.05 -42.45,11.05 -11.52,0 -21.94,-2.293 -31.22,-6.882 -9.3,-4.598 -17.04,-11.27 -23.23,-20.02 v 90.645 h -49.33 v -237.68 h 49.33 v 24.988 c 6.4,-8.758 14.26,-15.429 23.54,-20.019 9.29,-4.602 19.91,-6.891 31.87,-6.891 16.02,0 30.06,3.629 42.13,10.895 12.06,7.257 21.4,17.453 28.03,30.593 6.62,13.129 9.93,28.348 9.93,45.641 0,17.508 -3.36,32.992 -10.08,46.453"
         style="fill:#393536;fill-opacity:1;fill-rule:nonzero;stroke:none"
         id="path58" />
      <path
         d="M 2274.51,673.605 V 649.09 h 49.04 v 49.031 h -24.52 l -24.52,-24.516"
         style="fill:#393536;fill-opacity:1;fill-rule:nonzero;stroke:none"
         id="path60" />
    </g>
  </g>
</svg>
