<?xml version="1.0" encoding="UTF-8" standalone="no"?>
<!-- Created with Inkscape (http://www.inkscape.org/) -->

<svg
   version="1.1"
   id="svg2"
   width="388"
   height="180"
   viewBox="0 0 388 180"
   sodipodi:docname="Logo_Dresdenrb_Outline_4c_quer.eps"
   xmlns:inkscape="http://www.inkscape.org/namespaces/inkscape"
   xmlns:sodipodi="http://sodipodi.sourceforge.net/DTD/sodipodi-0.dtd"
   xmlns="http://www.w3.org/2000/svg"
   xmlns:svg="http://www.w3.org/2000/svg">
  <defs
     id="defs6" />
  <sodipodi:namedview
     id="namedview4"
     pagecolor="#ffffff"
     bordercolor="#000000"
     borderopacity="0.25"
     inkscape:showpageshadow="2"
     inkscape:pageopacity="0.0"
     inkscape:pagecheckerboard="0"
     inkscape:deskcolor="#d1d1d1" />
  <g
     id="g8"
     inkscape:groupmode="layer"
     inkscape:label="ink_ext_XXXXXX"
     transform="matrix(1.3333333,0,0,-1.3333333,0,180)">
    <g
       id="g10"
       transform="scale(0.1)">
      <path
         d="m 636.527,877.063 h -23.941 v 54.41 l 11.977,11.965 11.964,-11.965 z m 10.489,-5.247 v 61.829 l -1.536,3.707 -17.21,17.211 h -7.418 l -17.219,-17.211 -1.535,-3.707 v -61.829 l 5.242,-5.246 h 34.433 l 5.243,5.246"
         style="fill:#ed1c24;fill-opacity:1;fill-rule:nonzero;stroke:none"
         id="path12" />
      <path
         d="m 468.844,672.617 152.113,30.582 67.508,-217.855 z m -38.887,-228.121 20.906,99.219 -0.664,3.832 -7.84,12.781 13.606,10.77 1.988,4.105 v 29.176 c 0,20.039 0.399,41.121 3.043,61.144 L 686.223,473.465 Z M 561.375,297.84 249.844,241.871 681.109,455 Z m -308.48,-24.051 1.027,3.109 v 65.743 l 20.508,17.961 1.793,3.945 v 34.898 L 348.555,363.098 337.246,296.77 231.301,244.41 Z m 63.339,173.621 1.465,3.637 v 69.187 l -1.535,3.707 -4.766,4.754 v 14.016 l 16.985,12.168 1.898,2.512 11.114,31.519 h 0.46 l 10.235,-31.398 1.937,-2.633 L 371,542.711 v -14.016 l -4.754,-4.754 -1.535,-3.707 0.07,-62.007 -14.383,-84.321 -70.703,35.539 z m 25.446,178.801 7.418,-16.852 -7.118,-16.769 h -0.707 l -7.101,16.758 z M 430.602,434.008 669.617,461.023 492.418,373.449 459.445,357.16 Z m -37.075,18.094 25.477,-17.059 30.988,-82.555 -9.875,-4.879 -91.242,-45.097 25.504,149.59 z M 550.23,802.098 615.484,712.801 463.875,682.32 c 10.027,46.68 35.629,82.098 86.355,119.778 z m 13.102,54.015 15.02,11.543 2.046,4.16 v 89.387 l -1.535,3.707 -8.215,8.211 22.813,22.688 1.527,3.265 2.633,30.516 18.859,16.98 1.512,5.42 -1.699,5.6 7.121,10.96 h 2.297 l 7.109,-10.95 -1.703,-5.61 1.516,-5.42 18.859,-16.98 2.645,-30.516 1.527,-3.265 22.801,-22.688 -8.215,-8.211 -1.535,-3.707 v -89.387 l 2.047,-4.16 13.453,-10.336 -60.781,-137.613 -66.575,91.102 z m 66.82,-147.16 65.321,147.899 -1.602,6.277 -14.668,11.273 v 84.629 l 10.399,10.391 -0.012,7.43 -25.168,25.038 -2.652,30.67 -1.723,3.44 -17.926,16.14 1.442,4.75 -0.625,4.38 -7.59,11.69 v 40.39 l -0.797,2.78 -5.543,8.87 h -8.891 l -5.543,-8.87 -0.801,-2.78 v -40.38 l -7.601,-11.7 -0.625,-4.38 1.445,-4.75 -17.926,-16.14 -1.722,-3.44 -2.641,-30.67 -25.18,-25.038 -0.011,-7.43 10.398,-10.391 v -84.633 l -14.66,-11.269 -1.996,-3.414 -6.77,-47.379 C 488.988,770.203 461.551,730.727 452.063,676.539 l 0.007,-0.008 -0.019,-0.008 c -4.035,-23.46 -4.59,-48.535 -4.59,-72.144 v -26.633 l -15.262,-12.09 -1.211,-6.851 9.18,-14.969 -20.371,-96.695 -21.754,14.558 -2.918,0.891 h -19.926 v 55.473 l 4.754,4.753 1.535,3.707 v 18.879 l -2.191,4.266 -17.774,12.742 -9.128,27.895 7.246,17.312 -0.024,3.899 -11.113,25.23 -4.805,3.129 h -4.015 l -4.793,-3.113 -11.231,-25.231 -0.031,-3.914 7.195,-17.312 -9.886,-27.856 -17.836,-12.781 -2.192,-4.266 v -18.879 l 1.535,-3.707 4.766,-4.753 v -64.907 l -40.016,-41.57 -1.465,-3.637 v -41.027 l -20.507,-17.961 -1.793,-3.941 v -66.399 l -33.344,-45.351 5.152,-8.27 350.008,62.871 3.238,1.988 134.516,176.575 0.84,4.73 -73.688,237.789"
         style="fill:#ed1c24;fill-opacity:1;fill-rule:nonzero;stroke:none"
         id="path14" />
      <path
         d="m 898.301,505.559 h 25.691 c 8.235,0 14.52,1.789 18.856,5.363 4.332,3.574 6.504,8.887 6.504,15.93 0,6.937 -2.172,12.14 -6.504,15.613 -4.336,3.461 -10.621,5.199 -18.856,5.199 h -25.691 z m 49.426,-52.672 -19.676,33.652 c -0.871,-0.109 -2.223,-0.164 -4.059,-0.164 H 898.301 V 452.887 H 876.52 v 113.797 h 47.472 c 14.731,0 26.113,-3.411 34.137,-10.246 8.023,-6.829 12.027,-16.469 12.027,-28.934 0,-8.887 -1.926,-16.473 -5.773,-22.758 -3.848,-6.289 -9.453,-11.004 -16.82,-14.141 l 25.031,-37.718 h -24.867"
         style="fill:#ed1c24;fill-opacity:1;fill-rule:nonzero;stroke:none"
         id="path16" />
      <path
         d="m 1073.55,539.859 v -86.972 h -21.3 v 16.093 c -5.85,-11.277 -15.93,-16.906 -30.24,-16.906 -9.75,0 -17.44,2.981 -23.076,8.938 -5.637,5.961 -8.454,14.093 -8.454,24.386 v 54.461 h 21.3 v -48.285 c 0,-6.066 1.65,-10.84 4.95,-14.301 3.3,-3.472 7.89,-5.203 13.74,-5.203 6.71,0.11 12.03,2.496 15.93,7.157 3.9,4.652 5.85,10.566 5.85,17.714 v 42.918 h 21.3"
         style="fill:#ed1c24;fill-opacity:1;fill-rule:nonzero;stroke:none"
         id="path18" />
      <path
         d="m 1163.93,477.68 c 4.55,4.925 6.83,11.246 6.83,18.941 0,7.695 -2.28,13.973 -6.83,18.856 -4.55,4.878 -10.4,7.308 -17.56,7.308 -7.25,0 -13.17,-2.43 -17.72,-7.308 -4.55,-4.883 -6.83,-11.161 -6.83,-18.856 0,-7.805 2.28,-14.148 6.83,-19.019 4.55,-4.883 10.47,-7.321 17.72,-7.321 7.16,0 13.01,2.461 17.56,7.399 z m 8.7,57.222 c 6.23,-3.742 11.06,-8.972 14.46,-15.687 3.42,-6.719 5.13,-14.469 5.13,-23.246 0,-8.672 -1.68,-16.313 -5.04,-22.918 -3.36,-6.617 -8.13,-11.766 -14.31,-15.449 -6.17,-3.68 -13.33,-5.528 -21.45,-5.528 -6.51,0 -12.26,1.274 -17.24,3.824 -4.98,2.543 -9.1,6.258 -12.36,11.129 v -14.14 h -21.13 v 120.625 h 21.13 v -47.957 c 3.15,4.871 7.18,8.586 12.12,11.136 4.93,2.543 10.64,3.817 17.15,3.817 8.13,0 15.3,-1.867 21.54,-5.606"
         style="fill:#ed1c24;fill-opacity:1;fill-rule:nonzero;stroke:none"
         id="path20" />
      <path
         d="m 1233.1,425.82 c -5.03,-3.629 -11.02,-5.441 -17.95,-5.441 -4.23,0 -8.05,0.617 -11.47,1.867 -3.42,1.242 -6.8,3.223 -10.16,5.93 l 9.11,16.094 c 2.05,-1.516 3.95,-2.629 5.68,-3.332 1.74,-0.704 3.58,-1.055 5.53,-1.055 5.75,0 9.97,2.926 12.69,8.781 l 2.59,5.688 -35.93,85.507 h 21.96 l 24.7,-63.238 22.6,63.238 h 21.3 l -39.02,-97.867 c -2.71,-7.144 -6.58,-12.543 -11.63,-16.172"
         style="fill:#ed1c24;fill-opacity:1;fill-rule:nonzero;stroke:none"
         id="path22" />
      <path
         d="m 1363.88,478.57 c 5.09,-5.09 11.92,-7.64 20.49,-7.64 8.56,0 15.31,2.55 20.23,7.64 4.94,5.098 7.4,12.137 7.4,21.141 v 66.973 h 21.79 v -66.973 c 0,-9.863 -2.01,-18.457 -6.01,-25.77 -4.02,-7.312 -9.73,-12.929 -17.15,-16.832 -7.43,-3.894 -16.18,-5.847 -26.26,-5.847 -10.19,0 -19.05,1.953 -26.58,5.847 -7.54,3.903 -13.31,9.52 -17.31,16.832 -4.02,7.313 -6.02,15.907 -6.02,25.77 v 66.973 h 21.78 v -66.973 c 0,-9.004 2.55,-16.043 7.64,-21.141"
         style="fill:#ed1c24;fill-opacity:1;fill-rule:nonzero;stroke:none"
         id="path24" />
      <path
         d="m 1497.11,522.137 c -4.5,1.41 -8.65,2.121 -12.44,2.121 -3.57,0 -6.42,-0.625 -8.53,-1.871 -2.11,-1.25 -3.17,-3.172 -3.17,-5.77 0,-2.715 1.32,-4.801 3.98,-6.265 2.65,-1.461 6.85,-3.004 12.6,-4.629 6.07,-1.844 11.06,-3.66 14.96,-5.45 3.9,-1.785 7.28,-4.445 10.16,-7.964 2.87,-3.528 4.31,-8.157 4.31,-13.895 0,-8.453 -3.25,-14.961 -9.76,-19.512 -6.5,-4.55 -14.69,-6.828 -24.55,-6.828 -6.72,0 -13.27,1.055 -19.67,3.168 -6.4,2.117 -11.81,5.121 -16.26,9.024 l 7.32,14.797 c 3.91,-3.364 8.56,-5.993 13.99,-7.883 5.41,-1.903 10.56,-2.848 15.43,-2.848 3.91,0 7.02,0.672 9.36,2.035 2.33,1.352 3.49,3.387 3.49,6.09 0,3.035 -1.36,5.313 -4.06,6.828 -2.72,1.52 -7.1,3.199 -13.17,5.043 -5.85,1.731 -10.62,3.434 -14.31,5.117 -3.68,1.68 -6.88,4.231 -9.59,7.641 -2.71,3.418 -4.06,7.891 -4.06,13.41 0,8.567 3.11,15.094 9.34,19.59 6.24,4.5 14.07,6.75 23.5,6.75 5.74,0 11.4,-0.813 16.98,-2.441 5.59,-1.625 10.54,-3.903 14.88,-6.825 l -7.64,-15.281 c -4.23,2.492 -8.59,4.441 -13.09,5.848"
         style="fill:#ed1c24;fill-opacity:1;fill-rule:nonzero;stroke:none"
         id="path26" />
      <path
         d="m 1595.71,503.117 c -0.22,6.399 -2.33,11.488 -6.35,15.281 -4.01,3.793 -9.32,5.696 -15.93,5.696 -6.18,0 -11.35,-1.871 -15.52,-5.61 -4.18,-3.738 -6.75,-8.859 -7.73,-15.367 z m 8.86,25.528 c 6.98,-7.915 10.48,-19.02 10.48,-33.332 0,-2.813 -0.06,-4.926 -0.16,-6.333 h -64.21 c 1.4,-6.179 4.3,-11.035 8.69,-14.554 4.39,-3.52 9.78,-5.281 16.17,-5.281 4.45,0 8.7,0.839 12.77,2.519 4.06,1.684 7.61,4.09 10.64,7.234 l 11.39,-11.871 c -4.34,-4.761 -9.62,-8.445 -15.85,-11.05 -6.24,-2.606 -13.15,-3.903 -20.74,-3.903 -8.88,0 -16.71,1.848 -23.48,5.528 -6.78,3.683 -12.01,8.863 -15.69,15.527 -3.69,6.66 -5.53,14.332 -5.53,23 0,8.672 1.87,16.367 5.61,23.086 3.74,6.715 8.97,11.945 15.69,15.687 6.71,3.739 14.36,5.606 22.92,5.606 13.87,0 24.3,-3.957 31.3,-11.863"
         style="fill:#ed1c24;fill-opacity:1;fill-rule:nonzero;stroke:none"
         id="path28" />
      <path
         d="m 1666.34,536.043 c 5.04,2.98 10.92,4.52 17.63,4.629 v -20.481 c -8.99,0.539 -16.17,-1.55 -21.53,-6.257 -5.37,-4.715 -8.05,-11.09 -8.05,-19.106 v -41.941 h -21.13 v 86.972 h 21.13 v -16.746 c 2.92,5.633 6.91,9.942 11.95,12.93"
         style="fill:#ed1c24;fill-opacity:1;fill-rule:nonzero;stroke:none"
         id="path30" />
      <path
         d="m 1816.63,509.461 h 19.01 v -43.238 c -5.95,-4.45 -13,-8.047 -21.13,-10.817 -8.12,-2.761 -16.09,-4.144 -23.89,-4.144 -11.17,0 -21.32,2.601 -30.48,7.804 -9.16,5.2 -16.39,12.27 -21.7,21.215 -5.31,8.942 -7.97,18.824 -7.97,29.664 0,10.84 2.7,20.68 8.13,29.508 5.41,8.836 12.81,15.82 22.19,20.973 9.37,5.144 19.75,7.719 31.13,7.719 8.13,0 16.14,-1.461 24.06,-4.387 7.91,-2.926 14.74,-6.938 20.48,-12.028 l -12.35,-16.093 c -4.34,4.113 -9.35,7.312 -15.04,9.586 -5.69,2.277 -11.41,3.418 -17.15,3.418 -7.16,0 -13.74,-1.711 -19.75,-5.121 -6.02,-3.418 -10.76,-8.102 -14.23,-14.063 -3.46,-5.965 -5.2,-12.465 -5.2,-19.512 0,-7.148 1.76,-13.711 5.29,-19.668 3.52,-5.961 8.26,-10.675 14.21,-14.14 5.96,-3.473 12.58,-5.207 19.85,-5.207 3.89,0 7.98,0.625 12.27,1.867 4.27,1.254 8.36,3.012 12.27,5.289 v 31.375"
         style="fill:#ed1c24;fill-opacity:1;fill-rule:nonzero;stroke:none"
         id="path32" />
      <path
         d="m 1893.12,536.043 c 5.03,2.98 10.91,4.52 17.63,4.629 v -20.481 c -8.99,0.539 -16.17,-1.55 -21.53,-6.257 -5.37,-4.715 -8.05,-11.09 -8.05,-19.106 v -41.941 h -21.13 v 86.972 h 21.13 v -16.746 c 2.92,5.633 6.9,9.942 11.95,12.93"
         style="fill:#ed1c24;fill-opacity:1;fill-rule:nonzero;stroke:none"
         id="path34" />
      <path
         d="m 1945.7,515.145 c -4.55,-4.872 -6.83,-11.211 -6.83,-19.016 0,-7.801 2.28,-14.141 6.83,-19.02 4.55,-4.875 10.51,-7.312 17.89,-7.312 7.14,0 13,2.437 17.55,7.312 4.56,4.879 6.83,11.219 6.83,19.02 0,7.805 -2.27,14.144 -6.83,19.016 -4.55,4.882 -10.41,7.32 -17.55,7.32 -7.38,0 -13.34,-2.438 -17.89,-7.32 z m 41.7,19.843 c 6.88,-3.691 12.25,-8.863 16.09,-15.535 3.85,-6.66 5.78,-14.324 5.78,-23 0,-8.781 -1.93,-16.531 -5.78,-23.25 -3.84,-6.715 -9.21,-11.918 -16.09,-15.601 -6.88,-3.68 -14.82,-5.528 -23.81,-5.528 -9.11,0 -17.13,1.848 -24.07,5.528 -6.93,3.683 -12.32,8.886 -16.17,15.601 -3.85,6.719 -5.77,14.469 -5.77,23.25 0,8.676 1.92,16.34 5.77,23 3.85,6.672 9.24,11.844 16.17,15.535 6.94,3.672 14.96,5.52 24.07,5.52 8.99,0 16.93,-1.848 23.81,-5.52"
         style="fill:#ed1c24;fill-opacity:1;fill-rule:nonzero;stroke:none"
         id="path36" />
      <path
         d="m 2107.95,539.859 v -86.972 h -21.3 v 16.093 c -5.86,-11.277 -15.93,-16.906 -30.24,-16.906 -9.75,0 -17.45,2.981 -23.08,8.938 -5.64,5.961 -8.45,14.093 -8.45,24.386 v 54.461 h 21.29 v -48.285 c 0,-6.066 1.65,-10.84 4.96,-14.301 3.3,-3.472 7.88,-5.203 13.73,-5.203 6.72,0.11 12.04,2.496 15.93,7.157 3.9,4.652 5.86,10.566 5.86,17.714 v 42.918 h 21.3"
         style="fill:#ed1c24;fill-opacity:1;fill-rule:nonzero;stroke:none"
         id="path38" />
      <path
         d="m 2198.33,477.68 c 4.55,4.925 6.82,11.246 6.82,18.941 0,7.695 -2.27,13.973 -6.82,18.856 -4.56,4.878 -10.41,7.308 -17.56,7.308 -7.26,0 -13.17,-2.43 -17.72,-7.308 -4.55,-4.883 -6.83,-11.161 -6.83,-18.856 0,-7.805 2.28,-14.148 6.83,-19.019 4.55,-4.883 10.46,-7.321 17.72,-7.321 7.15,0 13,2.461 17.56,7.399 z m 8.69,57.222 c 6.24,-3.742 11.06,-8.972 14.47,-15.687 3.42,-6.719 5.12,-14.469 5.12,-23.246 0,-8.672 -1.68,-16.313 -5.03,-22.918 -3.37,-6.617 -8.14,-11.766 -14.32,-15.449 -6.16,-3.68 -13.32,-5.528 -21.45,-5.528 -6.5,0 -12.25,1.274 -17.23,3.824 -4.98,2.543 -9.11,6.258 -12.36,11.129 v -45.679 h -21.13 v 118.511 h 21.13 v -14.304 c 3.15,4.871 7.18,8.586 12.12,11.136 4.92,2.543 10.64,3.817 17.14,3.817 8.13,0 15.31,-1.867 21.54,-5.606"
         style="fill:#ed1c24;fill-opacity:1;fill-rule:nonzero;stroke:none"
         id="path40" />
      <path
         d="m 1006.53,700.5 c 9.93,5.871 17.67,14.035 23.22,24.508 5.56,10.457 8.33,22.422 8.33,35.871 0,13.453 -2.94,25.519 -8.8,36.203 -5.88,10.676 -13.89,18.949 -24.03,24.82 -10.148,5.875 -21.621,8.809 -34.437,8.809 h -43.559 v -139.02 h 45.805 c 12.379,0 23.546,2.934 33.471,8.809 z m 26.43,158.559 c 17.93,-9.5 31.87,-22.743 41.8,-39.719 9.93,-16.981 14.9,-36.36 14.9,-58.141 0,-21.777 -5.08,-41.156 -15.22,-58.136 -10.14,-16.977 -24.3,-30.223 -42.44,-39.719 -18.16,-9.508 -38.867,-14.258 -62.141,-14.258 h -93.222 v 224.23 h 95.136 c 22.852,0 43.247,-4.757 61.187,-14.257"
         style="fill:#5f080b;fill-opacity:1;fill-rule:nonzero;stroke:none"
         id="path42" />
      <path
         d="m 1201.13,814.691 c 9.61,5.555 20.82,8.442 33.64,8.653 v -46.446 c -1.71,0.211 -4.28,0.321 -7.7,0.321 -15.16,0 -27.17,-4.114 -36.03,-12.332 -8.86,-8.223 -13.29,-19.168 -13.29,-32.832 v -82.969 h -49.33 v 172.332 h 49.33 v -31.07 c 5.97,10.675 13.77,18.793 23.38,24.343"
         style="fill:#5f080b;fill-opacity:1;fill-rule:nonzero;stroke:none"
         id="path44" />
      <path
         d="m 1380.51,749.344 c -0.43,11.324 -4.06,20.398 -10.89,27.23 -6.84,6.836 -15.91,10.254 -27.23,10.254 -10.68,0 -19.59,-3.363 -26.75,-10.09 -7.16,-6.73 -11.69,-15.859 -13.61,-27.394 z m 24.82,49.652 c 14.41,-16.016 21.63,-38.328 21.63,-66.941 0,-5.129 -0.11,-9.078 -0.33,-11.856 h -123.64 c 2.77,-10.894 8.11,-19.379 16.01,-25.465 7.9,-6.082 17.41,-9.132 28.52,-9.132 8.11,0 15.9,1.546 23.38,4.644 7.47,3.098 14.2,7.633 20.18,13.617 l 25.94,-26.269 c -8.75,-9.824 -19.37,-17.348 -31.86,-22.578 -12.5,-5.243 -26.44,-7.852 -41.81,-7.852 -18.15,0 -34.01,3.629 -47.57,10.895 -13.57,7.257 -24.02,17.507 -31.39,30.75 -7.36,13.238 -11.05,28.504 -11.05,45.804 0,17.508 3.73,32.938 11.21,46.289 7.48,13.34 17.94,23.703 31.39,31.071 13.46,7.367 28.83,11.05 46.13,11.05 27.76,0 48.85,-8.007 63.26,-24.027"
         style="fill:#5f080b;fill-opacity:1;fill-rule:nonzero;stroke:none"
         id="path46" />
      <path
         d="m 1546.43,783.145 c -9.18,2.878 -17.41,4.324 -24.67,4.324 -5.98,0 -10.78,-1.071 -14.41,-3.203 -3.64,-2.137 -5.44,-5.344 -5.44,-9.614 0,-4.699 2.44,-8.328 7.36,-10.886 4.91,-2.567 12.92,-5.45 24.03,-8.649 12.17,-3.637 22.21,-7.211 30.11,-10.73 7.9,-3.528 14.73,-8.758 20.5,-15.696 5.77,-6.945 8.64,-16.07 8.64,-27.394 0,-17.078 -6.56,-30.375 -19.7,-39.875 -13.13,-9.504 -29.94,-14.258 -50.45,-14.258 -14.09,0 -27.65,2.078 -40.68,6.246 -13.03,4.16 -24.34,10.09 -33.95,17.778 l 16.02,33.316 c 8.75,-6.836 18.52,-12.121 29.3,-15.852 10.79,-3.746 20.99,-5.609 30.6,-5.609 6.61,0 11.9,1.117 15.86,3.363 3.95,2.246 5.92,5.61 5.92,10.09 0,4.91 -2.51,8.75 -7.53,11.535 -5.02,2.766 -13.08,5.762 -24.19,8.969 -11.74,3.41 -21.51,6.828 -29.31,10.246 -7.79,3.414 -14.46,8.594 -20.02,15.539 -5.55,6.938 -8.32,15.961 -8.32,27.067 0,17.078 6.41,30.32 19.22,39.718 12.81,9.395 29.03,14.094 48.69,14.094 11.74,0 23.49,-1.66 35.24,-4.969 11.74,-3.304 22.42,-8.062 32.03,-14.246 l -16.98,-33.636 c -9.4,5.332 -18.69,9.449 -27.87,12.332"
         style="fill:#5f080b;fill-opacity:1;fill-rule:nonzero;stroke:none"
         id="path48" />
      <path
         d="m 1741.03,700.18 c 8,8.859 12.01,20.34 12.01,34.433 0,14.098 -4.01,25.571 -12.01,34.442 -8.01,8.851 -18.32,13.285 -30.91,13.285 -12.82,0 -23.23,-4.434 -31.24,-13.285 -8,-8.871 -12.12,-20.344 -12.33,-34.442 0.21,-14.093 4.33,-25.574 12.33,-34.433 8.01,-8.864 18.42,-13.297 31.24,-13.297 12.59,0 22.9,4.433 30.91,13.297 z m 61.02,186.586 v -237.68 h -49.01 v 25.309 c -6.2,-8.969 -13.88,-15.75 -23.07,-20.34 -9.18,-4.602 -19.65,-6.891 -31.39,-6.891 -16.23,0 -30.48,3.684 -42.76,11.051 -12.28,7.363 -21.78,17.781 -28.51,31.234 -6.73,13.449 -10.09,28.934 -10.09,46.446 0,17.296 3.31,32.562 9.93,45.804 6.62,13.239 16.02,23.492 28.19,30.758 12.17,7.258 26.16,10.887 41.96,10.887 24.35,0 42.93,-9.082 55.74,-27.227 v 90.649 h 49.01"
         style="fill:#5f080b;fill-opacity:1;fill-rule:nonzero;stroke:none"
         id="path50" />
      <path
         d="m 1970.22,749.344 c -0.43,11.324 -4.06,20.398 -10.89,27.23 -6.84,6.836 -15.91,10.254 -27.23,10.254 -10.68,0 -19.6,-3.363 -26.75,-10.09 -7.16,-6.73 -11.69,-15.859 -13.61,-27.394 z m 24.82,49.652 c 14.41,-16.016 21.63,-38.328 21.63,-66.941 0,-5.129 -0.11,-9.078 -0.33,-11.856 H 1892.7 c 2.77,-10.894 8.11,-19.379 16.01,-25.465 7.9,-6.082 17.41,-9.132 28.51,-9.132 8.11,0 15.91,1.546 23.39,4.644 7.47,3.098 14.2,7.633 20.17,13.617 l 25.95,-26.269 c -8.76,-9.824 -19.38,-17.348 -31.87,-22.578 -12.49,-5.243 -26.43,-7.852 -41.8,-7.852 -18.16,0 -34.01,3.629 -47.57,10.895 -13.57,7.257 -24.02,17.507 -31.39,30.75 -7.37,13.238 -11.05,28.504 -11.05,45.804 0,17.508 3.73,32.938 11.21,46.289 7.47,13.34 17.94,23.703 31.39,31.071 13.46,7.367 28.83,11.05 46.13,11.05 27.76,0 48.85,-8.007 63.26,-24.027"
         style="fill:#5f080b;fill-opacity:1;fill-rule:nonzero;stroke:none"
         id="path52" />
      <path
         d="m 2210.3,805.402 c 11.42,-11.957 17.13,-27.972 17.13,-48.05 V 649.086 h -49.33 v 93.855 c 0,10.895 -3.04,19.489 -9.12,25.789 -6.09,6.297 -14.37,9.45 -24.83,9.45 -12.17,-0.219 -21.78,-4.434 -28.83,-12.653 -7.05,-8.226 -10.57,-18.738 -10.57,-31.558 v -84.883 h -49.33 v 172.332 h 49.33 v -30.109 c 11.96,20.929 31.82,31.601 59.58,32.035 19.22,0 34.54,-5.985 45.97,-17.942"
         style="fill:#5f080b;fill-opacity:1;fill-rule:nonzero;stroke:none"
         id="path54" />
      <path
         d="m 2443.33,814.691 c 9.61,5.555 20.82,8.442 33.64,8.653 v -46.446 c -1.71,0.211 -4.28,0.321 -7.7,0.321 -15.16,0 -27.17,-4.114 -36.03,-12.332 -8.86,-8.223 -13.29,-19.168 -13.29,-32.832 v -82.969 h -49.33 v 172.332 h 49.33 v -31.07 c 5.98,10.675 13.77,18.793 23.38,24.343"
         style="fill:#5f080b;fill-opacity:1;fill-rule:nonzero;stroke:none"
         id="path56" />
      <path
         d="m 2638.09,701.461 c 7.89,8.859 11.84,20.34 11.84,34.434 0,13.878 -3.95,25.25 -11.84,34.113 -7.91,8.859 -18.16,13.293 -30.75,13.293 -12.61,0 -22.91,-4.434 -30.92,-13.293 -8.01,-8.863 -12.01,-20.235 -12.01,-34.113 0,-14.313 4,-25.84 12.01,-34.598 8.01,-8.758 18.31,-13.133 30.92,-13.133 12.59,0 22.84,4.438 30.75,13.297 z m 23.22,110.512 c 12.28,-7.368 21.77,-17.778 28.52,-31.231 6.72,-13.457 10.08,-28.941 10.08,-46.449 0,-17.293 -3.31,-32.512 -9.93,-45.641 -6.63,-13.14 -15.97,-23.336 -28.03,-30.593 -12.07,-7.266 -26.11,-10.895 -42.12,-10.895 -11.97,0 -22.59,2.289 -31.88,6.891 -9.28,4.59 -17.14,11.261 -23.54,20.019 v -24.988 h -49.33 v 237.68 h 49.33 v -90.649 c 6.19,8.754 13.94,15.426 23.23,20.024 9.28,4.589 19.7,6.882 31.22,6.882 16.02,0 30.17,-3.683 42.45,-11.05"
         style="fill:#5f080b;fill-opacity:1;fill-rule:nonzero;stroke:none"
         id="path58" />
      <path
         d="m 2299.03,698.121 h 24.52 V 649.09 h -49.04 v 24.515 l 24.52,24.516"
         style="fill:#ed1c24;fill-opacity:1;fill-rule:nonzero;stroke:none"
         id="path60" />
    </g>
  </g>
</svg>
