<?xml version="1.0" encoding="UTF-8" standalone="no"?>
<!-- Created with Inkscape (http://www.inkscape.org/) -->

<svg
   version="1.1"
   id="svg7857"
   width="180"
   height="180"
   viewBox="0 0 180 180"
   sodipodi:docname="Logo_Dresdenrb_Outline_4c_icon.svg"
   inkscape:version="1.2.2 (b0a8486541, 2022-12-01)"
   xmlns:inkscape="http://www.inkscape.org/namespaces/inkscape"
   xmlns:sodipodi="http://sodipodi.sourceforge.net/DTD/sodipodi-0.dtd"
   xmlns="http://www.w3.org/2000/svg"
   xmlns:svg="http://www.w3.org/2000/svg">
  <defs
     id="defs7861" />
  <sodipodi:namedview
     id="namedview7859"
     pagecolor="#ffffff"
     bordercolor="#000000"
     borderopacity="0.25"
     inkscape:showpageshadow="2"
     inkscape:pageopacity="0.0"
     inkscape:pagecheckerboard="0"
     inkscape:deskcolor="#d1d1d1"
     showgrid="false"
     inkscape:zoom="3.1997284"
     inkscape:cx="117.19745"
     inkscape:cy="122.97919"
     inkscape:window-width="1854"
     inkscape:window-height="1131"
     inkscape:window-x="0"
     inkscape:window-y="0"
     inkscape:window-maximized="1"
     inkscape:current-layer="g7867">
    <inkscape:page
       x="0"
       y="0"
       id="page7863"
       width="180"
       height="180" />
  </sodipodi:namedview>
  <g
     id="g7865"
     inkscape:groupmode="layer"
     inkscape:label="Page 1"
     transform="matrix(1.3333333,0,0,-1.3333333,0,245.33333)">
    <g
       id="g7867"
       transform="scale(0.1)">
      <path
         d="m 872.48052,1387.2255 h -26.331 v 59.84 l 13.172,13.16 13.159,-13.16 z m 11.53,-5.77 v 68 l -1.68,4.08 -18.931,18.92 h -8.156 l -18.942,-18.92 -1.687,-4.08 v -68 l 5.765,-5.77 h 37.871 l 5.76,5.77"
         style="fill:#ed1c24;fill-opacity:1;fill-rule:nonzero;stroke:none"
         id="path7915" />
      <path
         d="m 688.06752,1162.3755 167.289,33.64 74.244,-239.594 z m -42.77,-250.876 22.992,109.116 -0.73,4.21 -8.621,14.06 14.965,11.84 2.183,4.52 v 32.09 c 0,22.04 0.442,45.22 3.348,67.24 l 247.696,-211.221 z m 144.531,-161.293 -342.613,-61.551 474.295,234.391 z m -339.257,-26.441 1.125,3.41 v 72.308 l 22.554,19.75 1.973,4.332 v 38.387 l 79.551,-39.977 -12.438,-72.949 -116.515,-57.582 z m 69.66,190.933 1.609,4 v 76.094 l -1.687,4.078 -5.243,5.227 v 15.418 l 18.68,13.38 2.086,2.76 12.223,34.66 h 0.508 l 11.253,-34.53 2.129,-2.89 18.668,-13.38 v -15.418 l -5.226,-5.227 -1.692,-4.078 0.082,-68.195 -15.82,-92.731 -77.758,39.082 z m 27.984,196.647 8.156,-18.54 -7.828,-18.44 h -0.777 l -7.809,18.43 z m 97.793,-211.385 262.862,29.715 -194.881,-96.309 -36.258,-17.922 z m -40.773,19.898 28.015,-18.758 34.082,-90.796 -10.859,-5.368 -100.348,-49.589 28.051,164.511 z m 172.336,384.917 71.765,-98.21 -166.734,-33.52 c 11.027,51.34 39.183,90.29 94.969,131.73 z m 14.41,59.41 16.515,12.69 2.254,4.58 v 98.3 l -1.687,4.08 -9.035,9.03 25.086,24.95 1.679,3.59 2.895,33.57 20.742,18.67 1.668,5.96 -1.871,6.16 7.832,12.05 h 2.523 l 7.817,-12.04 -1.867,-6.17 1.668,-5.96 20.74,-18.67 2.91,-33.57 1.67,-3.59 25.08,-24.95 -9.03,-9.03 -1.69,-4.08 v -98.3 l 2.25,-4.58 14.79,-11.36 -66.842,-151.35 -73.218,100.19 z m 73.488,-161.85 71.831,162.66 -1.75,6.91 -16.14,12.39 v 93.08 l 11.44,11.42 -0.01,8.17 -27.68,27.54 -2.92,33.72 -1.89,3.8 -19.72,17.74 1.59,5.22 -0.69,4.82 -8.35,12.87 v 44.41 l -0.88,3.06 -6.093,9.75 h -9.777 l -6.094,-9.75 -0.879,-3.06 v -44.41 l -8.359,-12.87 -0.688,-4.82 1.586,-5.22 -19.714,-17.74 -1.891,-3.8 -2.906,-33.72 -27.696,-27.54 -0.007,-8.17 11.433,-11.42 v -93.08 l -16.121,-12.39 -2.199,-3.76 -7.442,-52.11 c -63.234,-46.33 -93.41,-89.75 -103.843,-149.34 l 0.011,-0.01 -0.023,-0.01 c -4.441,-25.8 -5.047,-53.38 -5.047,-79.34 v -29.29 l -16.789,-13.3 -1.328,-7.54 10.094,-16.46 -22.407,-106.344 -23.921,16.016 -3.207,0.98 h -21.915 v 61.004 l 5.227,5.231 1.691,4.078 v 20.765 l -2.414,4.68 -19.543,14.02 -10.039,30.68 7.965,19.03 -0.023,4.29 -12.223,27.75 -5.285,3.45 h -4.414 l -5.274,-3.43 -12.347,-27.75 -0.035,-4.31 7.91,-19.03 -10.871,-30.63 -19.618,-14.07 -2.41,-4.68 v -20.765 l 1.692,-4.078 5.238,-5.231 v -71.379 l -44.008,-45.718 -1.609,-4 v -45.118 l -22.555,-19.75 -1.973,-4.339 v -73.032 l -36.671,-49.871 5.668,-9.09 384.929,69.141 3.563,2.18 147.931,194.199 0.93,5.203 -81.041,261.508"
         style="fill:#ed1c24;fill-opacity:1;fill-rule:nonzero;stroke:none"
         id="path7917" />
    </g>
  </g>
</svg>
