<?xml version="1.0" encoding="UTF-8" standalone="no"?>
<!-- Created with Inkscape (http://www.inkscape.org/) -->

<svg
   version="1.1"
   id="svg2"
   width="246.66667"
   height="245.33333"
   viewBox="0 0 246.66667 245.33333"
   sodipodi:docname="Logo_Dresdenrb_Voll_4c.eps"
   xmlns:inkscape="http://www.inkscape.org/namespaces/inkscape"
   xmlns:sodipodi="http://sodipodi.sourceforge.net/DTD/sodipodi-0.dtd"
   xmlns="http://www.w3.org/2000/svg"
   xmlns:svg="http://www.w3.org/2000/svg">
  <defs
     id="defs6" />
  <sodipodi:namedview
     id="namedview4"
     pagecolor="#ffffff"
     bordercolor="#000000"
     borderopacity="0.25"
     inkscape:showpageshadow="2"
     inkscape:pageopacity="0.0"
     inkscape:pagecheckerboard="0"
     inkscape:deskcolor="#d1d1d1" />
  <g
     id="g8"
     inkscape:groupmode="layer"
     inkscape:label="ink_ext_XXXXXX"
     transform="matrix(1.3333333,0,0,-1.3333333,0,245.33333)">
    <g
       id="g10"
       transform="scale(0.1)">
      <path
         d="M 988.508,1197.65 802.84,1160.32 1070.92,931.723 Z"
         style="fill:#b01419;fill-opacity:1;fill-rule:nonzero;stroke:none"
         id="path12" />
      <path
         d="m 706.004,918.117 -31.051,-182.078 127.16,62.84 -36.89,98.285 -31.282,20.953 h -27.937"
         style="fill:#ed1c24;fill-opacity:1;fill-rule:nonzero;stroke:none"
         id="path14" />
      <path
         d="m 988.508,1465.7 19.102,-19.1 V 1378 h -38.2 v 68.6 z m 54.812,-87.7 v 99.18 l 13.24,13.23 -29.44,29.29 -3.12,36.15 -22.65,20.38 2.68,8.81 -9.374,14.42 V 1646 l -6.148,9.84 -6.149,-9.84 v -46.54 l -9.379,-14.42 2.68,-8.81 -22.648,-20.38 -3.117,-36.15 -29.442,-29.29 13.238,-13.23 V 1378 l -18.543,-14.25 -7.843,-54.97 81.203,-111.13 73.362,166.1 -18.55,14.25"
         style="fill:#ed1c24;fill-opacity:1;fill-rule:nonzero;stroke:none"
         id="path16" />
      <path
         d="m 802.84,1160.32 185.668,37.33 -81.203,111.13 C 838.27,1258.69 812.258,1214.09 802.84,1160.32"
         style="fill:#f25564;fill-opacity:1;fill-rule:nonzero;stroke:none"
         id="path18" />
      <path
         d="M 1070.92,931.723 533.309,666.039 921.668,735.801 Z"
         style="fill:#5f080b;fill-opacity:1;fill-rule:nonzero;stroke:none"
         id="path20" />
      <path
         d="M 765.223,897.164 1070.92,931.723 802.113,798.879 Z"
         style="fill:#f25564;fill-opacity:1;fill-rule:nonzero;stroke:none"
         id="path22" />
      <path
         d="m 1070.92,931.723 v 0 L 802.84,1160.32 c -4.11,-23.91 -5.012,-49.78 -5.012,-79.06 v -32.37 l -19.137,-15.16 11.395,-18.58 -24.863,-117.986 305.697,34.559 v 0"
         style="fill:#ed1c24;fill-opacity:1;fill-rule:nonzero;stroke:none"
         id="path24" />
      <path
         d="m 596.184,863.309 v -48.161 l -24.739,-21.66 v -75.59 l -38.136,-51.859 141.644,70 v 0 l 13.774,80.762 -92.543,46.508"
         style="fill:#f25564;fill-opacity:1;fill-rule:nonzero;stroke:none"
         id="path26" />
      <path
         d="m 691.723,1031.06 -11.399,34.84 8.887,20.93 -12.332,27.99 -4.457,0.01 -12.453,-28 8.859,-20.93 -12.336,-34.84 -21.265,-15.23 v -20.955 l 6.984,-6.984 v -76.758 l -46.027,-47.824 92.543,-46.508 17.277,101.316 v 69.774 l 6.984,6.984 v 20.955 l -21.265,15.23"
         style="fill:#b01419;fill-opacity:1;fill-rule:nonzero;stroke:none"
         id="path28" />
      <path
         d="m 387.563,254.238 h 21.132 c 6.774,0 11.946,1.481 15.516,4.422 3.562,2.942 5.348,7.301 5.348,13.102 0,5.707 -1.786,9.988 -5.348,12.84 -3.57,2.847 -8.742,4.277 -15.516,4.277 h -21.132 z m 40.66,-43.328 -16.188,27.692 c -0.715,-0.102 -1.824,-0.141 -3.34,-0.141 H 387.563 V 210.91 h -17.922 v 93.621 h 39.054 c 12.125,0 21.485,-2.812 28.086,-8.429 6.598,-5.622 9.895,-13.551 9.895,-23.801 0,-7.313 -1.582,-13.551 -4.746,-18.731 -3.168,-5.172 -7.782,-9.05 -13.844,-11.629 l 20.598,-31.031 h -20.461"
         style="fill:#ed1c24;fill-opacity:1;fill-rule:nonzero;stroke:none"
         id="path30" />
      <path
         d="M 531.734,282.461 V 210.91 h -17.519 v 13.238 c -4.817,-9.277 -13.106,-13.91 -24.875,-13.91 -8.024,0 -14.36,2.453 -18.988,7.352 -4.641,4.91 -6.957,11.601 -6.957,20.07 v 44.801 h 17.519 v -39.723 c 0,-4.988 1.359,-8.918 4.078,-11.769 2.719,-2.86 6.485,-4.278 11.301,-4.278 5.527,0.09 9.898,2.047 13.105,5.887 3.211,3.832 4.817,8.692 4.817,14.57 v 35.313 h 17.519"
         style="fill:#ed1c24;fill-opacity:1;fill-rule:nonzero;stroke:none"
         id="path32" />
      <path
         d="m 606.094,231.309 c 3.746,4.05 5.617,9.25 5.617,15.582 0,6.328 -1.871,11.5 -5.617,15.507 -3.742,4.024 -8.559,6.024 -14.446,6.024 -5.972,0 -10.832,-2 -14.578,-6.024 -3.742,-4.007 -5.617,-9.179 -5.617,-15.507 0,-6.422 1.875,-11.641 5.617,-15.653 3.746,-4.008 8.606,-6.019 14.578,-6.019 5.887,0 10.704,2.031 14.446,6.09 z m 7.156,47.07 c 5.129,-3.07 9.094,-7.379 11.902,-12.899 2.809,-5.531 4.215,-11.91 4.215,-19.128 0,-7.133 -1.387,-13.422 -4.148,-18.852 -2.762,-5.449 -6.688,-9.68 -11.77,-12.711 -5.082,-3.027 -10.969,-4.551 -17.652,-4.551 -5.352,0 -10.078,1.051 -14.176,3.153 -4.101,2.089 -7.488,5.14 -10.168,9.148 V 210.91 h -17.387 v 99.238 h 17.387 v -39.457 c 2.59,4.008 5.906,7.071 9.965,9.168 4.055,2.09 8.758,3.141 14.109,3.141 6.688,0 12.594,-1.539 17.723,-4.621"
         style="fill:#ed1c24;fill-opacity:1;fill-rule:nonzero;stroke:none"
         id="path34" />
      <path
         d="m 663.004,188.641 c -4.145,-2.981 -9.074,-4.481 -14.777,-4.481 -3.477,0 -6.622,0.512 -9.43,1.539 -2.813,1.031 -5.598,2.653 -8.359,4.879 l 7.488,13.242 c 1.691,-1.25 3.258,-2.16 4.679,-2.738 1.426,-0.582 2.946,-0.871 4.551,-0.871 4.727,0 8.203,2.41 10.434,7.23 l 2.137,4.668 -29.555,70.352 h 18.055 l 20.328,-52.02 18.59,52.02 h 17.519 l -32.098,-80.512 c -2.23,-5.879 -5.418,-10.32 -9.562,-13.308"
         style="fill:#ed1c24;fill-opacity:1;fill-rule:nonzero;stroke:none"
         id="path36" />
      <path
         d="m 770.594,232.039 c 4.191,-4.187 9.808,-6.289 16.851,-6.289 7.043,0 12.594,2.102 16.653,6.289 4.054,4.191 6.086,9.981 6.086,17.391 v 55.101 h 17.921 V 249.43 c 0,-8.11 -1.652,-15.18 -4.949,-21.2 -3.301,-6.019 -8.004,-10.64 -14.109,-13.851 -6.109,-3.199 -13.309,-4.809 -21.602,-4.809 -8.379,0 -15.668,1.61 -21.867,4.809 -6.195,3.211 -10.945,7.832 -14.242,13.851 -3.301,6.02 -4.949,13.09 -4.949,21.2 v 55.101 h 17.922 V 249.43 c 0,-7.41 2.093,-13.2 6.285,-17.391"
         style="fill:#ed1c24;fill-opacity:1;fill-rule:nonzero;stroke:none"
         id="path38" />
      <path
         d="m 880.199,267.879 c -3.703,1.16 -7.113,1.75 -10.234,1.75 -2.938,0 -5.281,-0.52 -7.02,-1.539 -1.738,-1.031 -2.605,-2.61 -2.605,-4.75 0,-2.231 1.09,-3.949 3.277,-5.149 2.18,-1.211 5.637,-2.472 10.363,-3.812 4.993,-1.52 9.094,-3.008 12.305,-4.488 3.207,-1.461 5.992,-3.653 8.36,-6.551 2.359,-2.899 3.543,-6.711 3.543,-11.43 0,-6.949 -2.676,-12.308 -8.028,-16.051 -5.347,-3.75 -12.082,-5.621 -20.195,-5.621 -5.524,0 -10.918,0.871 -16.18,2.614 -5.262,1.738 -9.719,4.207 -13.375,7.418 l 6.02,12.171 c 3.211,-2.761 7.039,-4.921 11.504,-6.48 4.453,-1.563 8.691,-2.34 12.703,-2.34 3.211,0 5.769,0.551 7.691,1.668 1.914,1.109 2.875,2.789 2.875,5.012 0,2.5 -1.117,4.371 -3.344,5.621 -2.23,1.25 -5.839,2.629 -10.832,4.148 -4.816,1.418 -8.742,2.821 -11.773,4.211 -3.027,1.379 -5.66,3.481 -7.891,6.278 -2.226,2.812 -3.34,6.492 -3.34,11.043 0,7.039 2.559,12.41 7.692,16.109 5.125,3.699 11.566,5.559 19.324,5.559 4.723,0 9.383,-0.668 13.977,-2.008 4.589,-1.34 8.668,-3.211 12.238,-5.621 l -6.285,-12.571 c -3.481,2.051 -7.071,3.649 -10.77,4.809"
         style="fill:#ed1c24;fill-opacity:1;fill-rule:nonzero;stroke:none"
         id="path40" />
      <path
         d="m 961.313,252.23 c -0.18,5.27 -1.918,9.461 -5.219,12.579 -3.297,3.121 -7.668,4.679 -13.106,4.679 -5.082,0 -9.343,-1.539 -12.773,-4.609 -3.43,-3.078 -5.551,-7.289 -6.352,-12.649 z m 7.289,21 c 5.746,-6.511 8.625,-15.64 8.625,-27.421 0,-2.309 -0.047,-4.047 -0.133,-5.207 h -52.828 c 1.156,-5.082 3.543,-9.082 7.152,-11.973 3.613,-2.899 8.047,-4.34 13.309,-4.34 3.656,0 7.156,0.68 10.5,2.07 3.343,1.379 6.261,3.36 8.757,5.95 l 9.364,-9.77 c -3.567,-3.918 -7.914,-6.949 -13.039,-9.09 -5.129,-2.14 -10.813,-3.211 -17.055,-3.211 -7.313,0 -13.75,1.524 -19.324,4.551 -5.575,3.031 -9.875,7.289 -12.907,12.77 -3.031,5.48 -4.546,11.793 -4.546,18.921 0,7.141 1.535,13.469 4.617,19 3.074,5.52 7.375,9.829 12.906,12.899 5.523,3.082 11.813,4.621 18.855,4.621 11.411,0 19.993,-3.262 25.747,-9.77"
         style="fill:#ed1c24;fill-opacity:1;fill-rule:nonzero;stroke:none"
         id="path42" />
      <path
         d="m 1019.42,279.32 c 4.15,2.45 8.98,3.719 14.51,3.809 v -16.848 c -7.4,0.438 -13.31,-1.269 -17.72,-5.152 -4.41,-3.879 -6.62,-9.117 -6.62,-15.719 v -34.5 h -17.383 v 71.551 h 17.383 v -13.77 c 2.41,4.629 5.69,8.168 9.83,10.629"
         style="fill:#ed1c24;fill-opacity:1;fill-rule:nonzero;stroke:none"
         id="path44" />
      <path
         d="m 1143.06,257.449 h 15.65 v -35.57 c -4.9,-3.66 -10.7,-6.617 -17.38,-8.899 -6.69,-2.269 -13.24,-3.41 -19.66,-3.41 -9.19,0 -17.55,2.141 -25.08,6.418 -7.53,4.282 -13.49,10.102 -17.85,17.461 -4.37,7.352 -6.56,15.481 -6.56,24.403 0,8.918 2.23,17.007 6.69,24.277 4.46,7.269 10.54,13.012 18.25,17.25 7.71,4.242 16.26,6.351 25.62,6.351 6.68,0 13.28,-1.199 19.79,-3.609 6.51,-2.402 12.13,-5.699 16.85,-9.891 l -10.16,-13.242 c -3.57,3.383 -7.69,6.012 -12.37,7.883 -4.68,1.879 -9.39,2.82 -14.11,2.82 -5.89,0 -11.3,-1.41 -16.25,-4.222 -4.95,-2.809 -8.85,-6.66 -11.71,-11.571 -2.85,-4.91 -4.28,-10.25 -4.28,-16.046 0,-5.883 1.45,-11.282 4.35,-16.18 2.9,-4.902 6.8,-8.781 11.7,-11.633 4.9,-2.859 10.34,-4.289 16.32,-4.289 3.21,0 6.57,0.52 10.1,1.539 3.52,1.031 6.88,2.481 10.09,4.352 v 25.808"
         style="fill:#ed1c24;fill-opacity:1;fill-rule:nonzero;stroke:none"
         id="path46" />
      <path
         d="m 1205.99,279.32 c 4.15,2.45 8.98,3.719 14.51,3.809 v -16.848 c -7.4,0.438 -13.31,-1.269 -17.72,-5.152 -4.41,-3.879 -6.62,-9.117 -6.62,-15.719 v -34.5 h -17.38 v 71.551 h 17.38 v -13.77 c 2.41,4.629 5.68,8.168 9.83,10.629"
         style="fill:#ed1c24;fill-opacity:1;fill-rule:nonzero;stroke:none"
         id="path48" />
      <path
         d="m 1249.26,262.129 c -3.75,-4.008 -5.62,-9.231 -5.62,-15.649 0,-6.41 1.87,-11.628 5.62,-15.64 3.74,-4.012 8.64,-6.02 14.71,-6.02 5.88,0 10.7,2.008 14.44,6.02 3.74,4.012 5.62,9.23 5.62,15.64 0,6.418 -1.88,11.641 -5.62,15.649 -3.74,4.012 -8.56,6.019 -14.44,6.019 -6.07,0 -10.97,-2.007 -14.71,-6.019 z m 34.3,16.32 c 5.66,-3.027 10.07,-7.289 13.24,-12.769 3.16,-5.489 4.75,-11.789 4.75,-18.93 0,-7.219 -1.59,-13.602 -4.75,-19.121 -3.17,-5.527 -7.58,-9.809 -13.24,-12.84 -5.66,-3.027 -12.19,-4.551 -19.59,-4.551 -7.49,0 -14.09,1.524 -19.8,4.551 -5.7,3.031 -10.14,7.313 -13.31,12.84 -3.16,5.519 -4.74,11.902 -4.74,19.121 0,7.141 1.58,13.441 4.74,18.93 3.17,5.48 7.61,9.742 13.31,12.769 5.71,3.031 12.31,4.551 19.8,4.551 7.4,0 13.93,-1.52 19.59,-4.551"
         style="fill:#ed1c24;fill-opacity:1;fill-rule:nonzero;stroke:none"
         id="path50" />
      <path
         d="M 1382.73,282.461 V 210.91 h -17.52 v 13.238 c -4.82,-9.277 -13.11,-13.91 -24.88,-13.91 -8.02,0 -14.35,2.453 -18.99,7.352 -4.64,4.91 -6.95,11.601 -6.95,20.07 v 44.801 h 17.52 v -39.723 c 0,-4.988 1.36,-8.918 4.08,-11.769 2.72,-2.86 6.48,-4.278 11.3,-4.278 5.52,0.09 9.9,2.047 13.1,5.887 3.21,3.832 4.82,8.692 4.82,14.57 v 35.313 h 17.52"
         style="fill:#ed1c24;fill-opacity:1;fill-rule:nonzero;stroke:none"
         id="path52" />
      <path
         d="m 1457.09,231.309 c 3.74,4.05 5.62,9.25 5.62,15.582 0,6.328 -1.88,11.5 -5.62,15.507 -3.75,4.024 -8.56,6.024 -14.45,6.024 -5.97,0 -10.83,-2 -14.57,-6.024 -3.75,-4.007 -5.62,-9.179 -5.62,-15.507 0,-6.422 1.87,-11.641 5.62,-15.653 3.74,-4.008 8.6,-6.019 14.57,-6.019 5.89,0 10.7,2.031 14.45,6.09 z m 7.15,47.07 c 5.13,-3.07 9.1,-7.379 11.91,-12.899 2.8,-5.531 4.21,-11.91 4.21,-19.128 0,-7.133 -1.38,-13.422 -4.15,-18.852 -2.76,-5.449 -6.68,-9.68 -11.77,-12.711 -5.08,-3.027 -10.96,-4.551 -17.65,-4.551 -5.35,0 -10.08,1.051 -14.18,3.153 -4.1,2.089 -7.48,5.14 -10.16,9.148 v -37.578 h -17.39 v 97.5 h 17.39 v -11.77 c 2.58,4.008 5.9,7.071 9.96,9.168 4.06,2.09 8.76,3.141 14.11,3.141 6.69,0 12.6,-1.539 17.72,-4.621"
         style="fill:#ed1c24;fill-opacity:1;fill-rule:nonzero;stroke:none"
         id="path54" />
      <path
         d="m 281.859,414.621 c 8.172,4.828 14.539,11.551 19.11,20.16 4.562,8.598 6.851,18.449 6.851,29.508 0,11.07 -2.418,21 -7.246,29.793 -4.836,8.777 -11.426,15.59 -19.765,20.418 -8.348,4.828 -17.789,7.238 -28.332,7.238 h -35.84 V 407.371 h 37.687 c 10.184,0 19.367,2.418 27.535,7.25 z m 21.743,130.449 c 14.757,-7.82 26.222,-18.711 34.39,-32.679 8.172,-13.969 12.258,-29.911 12.258,-47.832 0,-17.918 -4.176,-33.86 -12.523,-47.829 -8.344,-13.968 -19.985,-24.871 -34.914,-32.679 C 287.875,376.23 270.836,372.32 251.688,372.32 H 175 v 184.469 h 78.27 c 18.793,0 35.574,-3.91 50.332,-11.719"
         style="fill:#5f080b;fill-opacity:1;fill-rule:nonzero;stroke:none"
         id="path56" />
      <path
         d="m 441.957,508.57 c 7.906,4.559 17.129,6.942 27.672,7.11 v -38.211 c -1.41,0.179 -3.52,0.269 -6.328,0.269 -12.477,0 -22.356,-3.386 -29.649,-10.148 -7.289,-6.762 -10.933,-15.77 -10.933,-27.012 V 372.32 h -40.582 v 141.782 h 40.582 v -25.563 c 4.918,8.781 11.332,15.461 19.238,20.031"
         style="fill:#5f080b;fill-opacity:1;fill-rule:nonzero;stroke:none"
         id="path58" />
      <path
         d="m 589.531,454.801 c -0.355,9.32 -3.34,16.781 -8.961,22.41 -5.625,5.621 -13.09,8.43 -22.398,8.43 -8.789,0 -16.121,-2.762 -22.008,-8.301 -5.887,-5.539 -9.617,-13.051 -11.195,-22.539 z m 20.422,40.847 c 11.86,-13.168 17.789,-31.527 17.789,-55.07 0,-4.219 -0.09,-7.469 -0.265,-9.75 H 525.754 c 2.281,-8.969 6.676,-15.949 13.176,-20.949 6.5,-5.008 14.32,-7.52 23.457,-7.52 6.676,0 13.086,1.282 19.234,3.821 6.149,2.55 11.688,6.281 16.606,11.211 l 21.347,-21.621 c -7.207,-8.079 -15.945,-14.27 -26.222,-18.571 -10.278,-4.308 -21.743,-6.461 -34.391,-6.461 -14.934,0 -27.981,2.992 -39.137,8.961 -11.156,5.973 -19.761,14.41 -25.824,25.301 -6.059,10.891 -9.09,23.449 -9.09,37.68 0,14.41 3.07,27.101 9.223,38.09 6.148,10.968 14.754,19.5 25.824,25.558 11.07,6.063 23.719,9.094 37.949,9.094 22.836,0 40.188,-6.594 52.047,-19.774"
         style="fill:#5f080b;fill-opacity:1;fill-rule:nonzero;stroke:none"
         id="path60" />
      <path
         d="m 726.035,482.609 c -7.558,2.371 -14.32,3.563 -20.293,3.563 -4.922,0 -8.871,-0.883 -11.859,-2.641 -2.988,-1.75 -4.481,-4.39 -4.481,-7.91 0,-3.859 2.02,-6.851 6.063,-8.949 4.039,-2.113 10.629,-4.492 19.765,-7.121 10.012,-2.992 18.27,-5.93 24.774,-8.821 6.496,-2.91 12.121,-7.21 16.863,-12.921 4.742,-5.707 7.113,-13.219 7.113,-22.528 0,-14.062 -5.402,-24.992 -16.207,-32.812 -10.8,-7.821 -24.636,-11.731 -41.503,-11.731 -11.598,0 -22.754,1.711 -33.469,5.141 -10.719,3.422 -20.028,8.301 -27.934,14.621 l 13.18,27.41 c 7.195,-5.621 15.234,-9.969 24.109,-13.039 8.867,-3.082 17.262,-4.609 25.168,-4.609 5.446,0 9.789,0.918 13.043,2.769 3.25,1.84 4.875,4.61 4.875,8.289 0,4.051 -2.062,7.2 -6.191,9.489 -4.129,2.281 -10.766,4.75 -19.899,7.382 -9.664,2.809 -17.703,5.618 -24.113,8.43 -6.414,2.809 -11.902,7.07 -16.469,12.789 -4.57,5.699 -6.851,13.129 -6.851,22.262 0,14.058 5.269,24.949 15.812,32.68 10.539,7.726 23.891,11.597 40.059,11.597 9.656,0 19.324,-1.371 28.984,-4.09 9.664,-2.718 18.449,-6.629 26.356,-11.718 l -13.969,-27.672 c -7.734,4.383 -15.375,7.769 -22.926,10.14"
         style="fill:#5f080b;fill-opacity:1;fill-rule:nonzero;stroke:none"
         id="path62" />
      <path
         d="m 886.129,414.359 c 6.59,7.282 9.883,16.731 9.883,28.321 0,11.601 -3.293,21.039 -9.883,28.34 -6.59,7.281 -15.07,10.929 -25.43,10.929 -10.543,0 -19.109,-3.648 -25.695,-10.929 -6.59,-7.301 -9.977,-16.739 -10.149,-28.34 0.172,-11.59 3.559,-21.039 10.149,-28.321 6.586,-7.289 15.152,-10.937 25.695,-10.937 10.36,0 18.84,3.648 25.43,10.937 z m 50.203,153.5 V 372.32 h -40.32 v 20.821 c -5.102,-7.379 -11.426,-12.95 -18.977,-16.731 -7.555,-3.781 -16.168,-5.672 -25.828,-5.672 -13.352,0 -25.078,3.032 -35.18,9.094 -10.101,6.059 -17.918,14.629 -23.453,25.699 -5.535,11.059 -8.301,23.797 -8.301,38.207 0,14.231 2.723,26.793 8.168,37.684 5.446,10.887 13.176,19.328 23.192,25.308 10.015,5.969 21.519,8.95 34.523,8.95 20.028,0 35.313,-7.469 45.856,-22.391 v 74.57 h 40.32"
         style="fill:#5f080b;fill-opacity:1;fill-rule:nonzero;stroke:none"
         id="path64" />
      <path
         d="m 1074.68,454.801 c -0.35,9.32 -3.34,16.781 -8.96,22.41 -5.62,5.621 -13.09,8.43 -22.4,8.43 -8.79,0 -16.12,-2.762 -22,-8.301 -5.89,-5.539 -9.62,-13.051 -11.2,-22.539 z m 20.43,40.847 c 11.85,-13.168 17.78,-31.527 17.78,-55.07 0,-4.219 -0.09,-7.469 -0.26,-9.75 h -101.72 c 2.28,-8.969 6.67,-15.949 13.17,-20.949 6.5,-5.008 14.32,-7.52 23.46,-7.52 6.67,0 13.08,1.282 19.24,3.821 6.14,2.55 11.68,6.281 16.6,11.211 l 21.35,-21.621 c -7.21,-8.079 -15.95,-14.27 -26.23,-18.571 -10.27,-4.308 -21.74,-6.461 -34.39,-6.461 -14.93,0 -27.98,2.992 -39.13,8.961 -11.164,5.973 -19.765,14.41 -25.828,25.301 -6.058,10.891 -9.089,23.449 -9.089,37.68 0,14.41 3.07,27.101 9.222,38.09 6.149,10.968 14.754,19.5 25.825,25.558 11.07,6.063 23.72,9.094 37.95,9.094 22.83,0 40.19,-6.594 52.05,-19.774"
         style="fill:#5f080b;fill-opacity:1;fill-rule:nonzero;stroke:none"
         id="path66" />
      <path
         d="m 1272.2,500.922 c 9.39,-9.832 14.1,-23.012 14.1,-39.531 V 372.32 h -40.59 v 77.219 c 0,8.961 -2.5,16.031 -7.51,21.211 -5.01,5.18 -11.82,7.781 -20.42,7.781 -10.02,-0.179 -17.92,-3.652 -23.72,-10.41 -5.8,-6.769 -8.7,-15.422 -8.7,-25.961 v -69.84 h -40.58 v 141.782 h 40.58 v -24.774 c 9.84,17.223 26.18,26.004 49.02,26.352 15.81,0 28.42,-4.918 37.82,-14.758"
         style="fill:#5f080b;fill-opacity:1;fill-rule:nonzero;stroke:none"
         id="path68" />
      <path
         d="m 1463.91,508.57 c 7.91,4.559 17.13,6.942 27.67,7.11 v -38.211 c -1.41,0.179 -3.52,0.269 -6.32,0.269 -12.48,0 -22.36,-3.386 -29.65,-10.148 -7.29,-6.762 -10.94,-15.77 -10.94,-27.012 V 372.32 h -40.58 v 141.782 h 40.58 v -25.563 c 4.92,8.781 11.33,15.461 19.24,20.031"
         style="fill:#5f080b;fill-opacity:1;fill-rule:nonzero;stroke:none"
         id="path70" />
      <path
         d="m 1624.13,415.41 c 6.5,7.289 9.75,16.731 9.75,28.328 0,11.422 -3.25,20.774 -9.75,28.063 -6.5,7.289 -14.93,10.937 -25.29,10.937 -10.37,0 -18.85,-3.648 -25.44,-10.937 -6.59,-7.289 -9.88,-16.641 -9.88,-28.063 0,-11.777 3.29,-21.258 9.88,-28.457 6.59,-7.211 15.07,-10.812 25.44,-10.812 10.36,0 18.79,3.652 25.29,10.941 z m 19.11,90.918 c 10.1,-6.058 17.91,-14.629 23.46,-25.687 5.53,-11.082 8.3,-23.813 8.3,-38.219 0,-14.231 -2.73,-26.75 -8.17,-37.551 -5.46,-10.812 -13.14,-19.199 -23.06,-25.172 -9.93,-5.969 -21.48,-8.961 -34.66,-8.961 -9.84,0 -18.58,1.891 -26.22,5.672 -7.64,3.781 -14.1,9.262 -19.37,16.469 V 372.32 h -40.58 v 195.539 h 40.58 v -74.57 c 5.1,7.199 11.47,12.68 19.11,16.473 7.64,3.769 16.21,5.66 25.69,5.66 13.18,0 24.81,-3.031 34.92,-9.094"
         style="fill:#5f080b;fill-opacity:1;fill-rule:nonzero;stroke:none"
         id="path72" />
      <path
         d="m 1345.19,412.672 h 20.17 v -40.34 h -40.34 V 392.5 l 20.17,20.172"
         style="fill:#ed1c24;fill-opacity:1;fill-rule:nonzero;stroke:none"
         id="path74" />
    </g>
  </g>
</svg>
