<?xml version="1.0" encoding="UTF-8" standalone="no"?>
<!-- Created with Inkscape (http://www.inkscape.org/) -->

<svg
   version="1.1"
   id="svg2"
   width="246.66667"
   height="245.33333"
   viewBox="0 0 246.66667 245.33333"
   sodipodi:docname="Logo_Dresdenrb_Outline_1c_w.eps"
   xmlns:inkscape="http://www.inkscape.org/namespaces/inkscape"
   xmlns:sodipodi="http://sodipodi.sourceforge.net/DTD/sodipodi-0.dtd"
   xmlns="http://www.w3.org/2000/svg"
   xmlns:svg="http://www.w3.org/2000/svg">
  <defs
     id="defs6" />
  <sodipodi:namedview
     id="namedview4"
     pagecolor="#ffffff"
     bordercolor="#000000"
     borderopacity="0.25"
     inkscape:showpageshadow="2"
     inkscape:pageopacity="0.0"
     inkscape:pagecheckerboard="0"
     inkscape:deskcolor="#d1d1d1" />
  <g
     id="g8"
     inkscape:groupmode="layer"
     inkscape:label="ink_ext_XXXXXX"
     transform="matrix(1.3333333,0,0,-1.3333333,0,245.33333)">
    <g
       id="g10"
       transform="scale(0.1)">
      <path
         d="m 387.563,254.922 h 21.132 c 6.774,0 11.946,1.476 15.516,4.418 3.562,2.941 5.348,7.308 5.348,13.101 0,5.707 -1.786,9.989 -5.348,12.848 -3.57,2.852 -8.742,4.27 -15.516,4.27 h -21.132 z m 40.66,-43.332 -16.188,27.691 c -0.715,-0.09 -1.824,-0.14 -3.34,-0.14 H 387.563 V 211.59 h -17.922 v 93.621 h 39.054 c 12.121,0 21.485,-2.801 28.086,-8.43 6.598,-5.609 9.895,-13.551 9.895,-23.801 0,-7.308 -1.582,-13.55 -4.746,-18.718 -3.168,-5.18 -7.782,-9.063 -13.844,-11.641 l 20.598,-31.031 h -20.461"
         style="fill:#ffffff;fill-opacity:1;fill-rule:nonzero;stroke:none"
         id="path12" />
      <path
         d="M 531.734,283.141 V 211.59 h -17.519 v 13.242 c -4.817,-9.273 -13.106,-13.91 -24.875,-13.91 -8.024,0 -14.36,2.457 -18.988,7.359 -4.641,4.899 -6.957,11.59 -6.957,20.059 v 44.801 h 17.519 v -39.719 c 0,-4.992 1.359,-8.922 4.078,-11.774 2.719,-2.847 6.485,-4.269 11.301,-4.269 5.527,0.09 9.898,2.051 13.105,5.883 3.211,3.828 4.817,8.687 4.817,14.57 v 35.309 h 17.519"
         style="fill:#ffffff;fill-opacity:1;fill-rule:nonzero;stroke:none"
         id="path14" />
      <path
         d="m 606.094,231.988 c 3.746,4.051 5.617,9.25 5.617,15.582 0,6.328 -1.871,11.5 -5.617,15.508 -3.742,4.024 -8.559,6.024 -14.446,6.024 -5.972,0 -10.832,-2 -14.578,-6.024 -3.742,-4.008 -5.617,-9.18 -5.617,-15.508 0,-6.422 1.875,-11.64 5.617,-15.648 3.746,-4.012 8.606,-6.024 14.578,-6.024 5.887,0 10.704,2.032 14.446,6.09 z m 7.156,47.071 c 5.125,-3.071 9.094,-7.368 11.902,-12.899 2.809,-5.531 4.215,-11.898 4.215,-19.121 0,-7.141 -1.387,-13.418 -4.148,-18.859 -2.766,-5.442 -6.688,-9.68 -11.77,-12.711 -5.082,-3.028 -10.969,-4.547 -17.652,-4.547 -5.352,0 -10.078,1.047 -14.176,3.148 -4.101,2.09 -7.488,5.149 -10.168,9.16 v -11.64 h -17.387 v 99.238 h 17.387 v -39.449 c 2.59,4 5.906,7.062 9.965,9.16 4.055,2.09 8.758,3.141 14.109,3.141 6.688,0 12.594,-1.539 17.723,-4.621"
         style="fill:#ffffff;fill-opacity:1;fill-rule:nonzero;stroke:none"
         id="path16" />
      <path
         d="m 663.004,189.328 c -4.145,-2.988 -9.074,-4.476 -14.777,-4.476 -3.477,0 -6.622,0.507 -9.43,1.527 -2.813,1.031 -5.598,2.66 -8.359,4.883 l 7.488,13.238 c 1.691,-1.25 3.258,-2.16 4.679,-2.738 1.426,-0.582 2.946,-0.871 4.551,-0.871 4.727,0 8.203,2.41 10.434,7.23 l 2.137,4.68 -29.555,70.34 h 18.055 l 20.328,-52.02 18.59,52.02 h 17.519 l -32.098,-80.512 c -2.23,-5.879 -5.418,-10.32 -9.562,-13.301"
         style="fill:#ffffff;fill-opacity:1;fill-rule:nonzero;stroke:none"
         id="path18" />
      <path
         d="m 770.594,232.719 c 4.191,-4.188 9.804,-6.278 16.851,-6.278 7.043,0 12.594,2.09 16.653,6.278 4.054,4.203 6.086,9.992 6.086,17.39 v 55.102 h 17.921 v -55.102 c 0,-8.109 -1.652,-15.179 -4.949,-21.199 -3.301,-6.012 -8.004,-10.629 -14.109,-13.84 -6.109,-3.211 -13.309,-4.82 -21.602,-4.82 -8.379,0 -15.668,1.609 -21.867,4.82 -6.195,3.211 -10.945,7.828 -14.242,13.84 -3.301,6.02 -4.949,13.09 -4.949,21.199 v 55.102 h 17.922 v -55.102 c 0,-7.398 2.093,-13.187 6.285,-17.39"
         style="fill:#ffffff;fill-opacity:1;fill-rule:nonzero;stroke:none"
         id="path20" />
      <path
         d="m 880.199,268.559 c -3.703,1.16 -7.113,1.75 -10.234,1.75 -2.938,0 -5.281,-0.52 -7.02,-1.539 -1.738,-1.032 -2.605,-2.61 -2.605,-4.75 0,-2.231 1.09,-3.95 3.277,-5.149 2.18,-1.199 5.637,-2.473 10.363,-3.812 4.993,-1.52 9.094,-3.008 12.305,-4.481 3.207,-1.469 5.992,-3.656 8.36,-6.547 2.359,-2.91 3.543,-6.711 3.543,-11.441 0,-6.949 -2.676,-12.309 -8.028,-16.051 -5.347,-3.738 -12.082,-5.617 -20.195,-5.617 -5.524,0 -10.918,0.867 -16.18,2.609 -5.262,1.739 -9.719,4.207 -13.375,7.418 l 6.02,12.18 c 3.211,-2.77 7.039,-4.93 11.504,-6.488 4.453,-1.563 8.691,-2.34 12.703,-2.34 3.211,0 5.769,0.551 7.691,1.668 1.918,1.121 2.875,2.793 2.875,5.011 0,2.5 -1.117,4.372 -3.344,5.622 -2.23,1.25 -5.839,2.628 -10.832,4.148 -4.816,1.422 -8.742,2.832 -11.773,4.211 -3.027,1.379 -5.66,3.48 -7.891,6.277 -2.226,2.821 -3.34,6.5 -3.34,11.043 0,7.039 2.559,12.418 7.692,16.117 5.125,3.704 11.566,5.551 19.324,5.551 4.727,0 9.383,-0.668 13.977,-2.008 4.589,-1.339 8.668,-3.211 12.238,-5.621 l -6.289,-12.57 c -3.477,2.051 -7.067,3.66 -10.766,4.809"
         style="fill:#ffffff;fill-opacity:1;fill-rule:nonzero;stroke:none"
         id="path22" />
      <path
         d="m 961.313,252.922 c -0.18,5.258 -1.918,9.449 -5.219,12.566 -3.297,3.121 -7.668,4.684 -13.106,4.684 -5.082,0 -9.343,-1.531 -12.773,-4.613 -3.43,-3.079 -5.551,-7.289 -6.352,-12.637 z m 7.289,21 c 5.746,-6.512 8.625,-15.652 8.625,-27.422 0,-2.32 -0.047,-4.059 -0.133,-5.211 h -52.828 c 1.156,-5.09 3.543,-9.078 7.156,-11.98 3.609,-2.887 8.043,-4.34 13.305,-4.34 3.656,0 7.156,0.691 10.5,2.07 3.343,1.383 6.261,3.371 8.757,5.949 l 9.364,-9.758 c -3.567,-3.921 -7.914,-6.949 -13.039,-9.101 -5.129,-2.141 -10.813,-3.207 -17.055,-3.207 -7.313,0 -13.75,1.519 -19.324,4.547 -5.575,3.031 -9.875,7.293 -12.907,12.769 -3.031,5.492 -4.546,11.801 -4.546,18.934 0,7.129 1.535,13.457 4.613,18.988 3.078,5.531 7.379,9.828 12.91,12.899 5.523,3.082 11.813,4.621 18.855,4.621 11.411,0 19.993,-3.258 25.747,-9.758"
         style="fill:#ffffff;fill-opacity:1;fill-rule:nonzero;stroke:none"
         id="path24" />
      <path
         d="m 1019.42,280 c 4.15,2.461 8.98,3.719 14.51,3.809 v -16.848 c -7.4,0.449 -13.3,-1.27 -17.72,-5.141 -4.41,-3.879 -6.62,-9.129 -6.62,-15.718 V 211.59 h -17.383 v 71.551 h 17.383 v -13.77 c 2.41,4.629 5.69,8.18 9.83,10.629"
         style="fill:#ffffff;fill-opacity:1;fill-rule:nonzero;stroke:none"
         id="path26" />
      <path
         d="m 1143.06,258.141 h 15.65 v -35.582 c -4.9,-3.661 -10.7,-6.618 -17.38,-8.899 -6.69,-2.269 -13.24,-3.41 -19.66,-3.41 -9.19,0 -17.55,2.148 -25.08,6.43 -7.53,4.269 -13.49,10.09 -17.85,17.449 -4.37,7.351 -6.56,15.492 -6.56,24.402 0,8.918 2.23,17.02 6.69,24.278 4.46,7.269 10.54,13.011 18.25,17.25 7.71,4.242 16.26,6.363 25.62,6.363 6.68,0 13.28,-1.211 19.79,-3.613 6.51,-2.411 12.13,-5.707 16.85,-9.899 l -10.16,-13.238 c -3.57,3.379 -7.69,6.019 -12.37,7.887 -4.68,1.871 -9.39,2.812 -14.11,2.812 -5.89,0 -11.3,-1.41 -16.25,-4.223 -4.95,-2.808 -8.85,-6.66 -11.71,-11.558 -2.85,-4.91 -4.28,-10.262 -4.28,-16.059 0,-5.883 1.45,-11.269 4.35,-16.179 2.9,-4.903 6.8,-8.782 11.7,-11.633 4.91,-2.86 10.34,-4.278 16.32,-4.278 3.21,0 6.57,0.508 10.1,1.528 3.52,1.031 6.88,2.48 10.09,4.351 v 25.821"
         style="fill:#ffffff;fill-opacity:1;fill-rule:nonzero;stroke:none"
         id="path28" />
      <path
         d="m 1205.99,280 c 4.15,2.461 8.98,3.719 14.51,3.809 v -16.848 c -7.4,0.449 -13.31,-1.27 -17.72,-5.141 -4.41,-3.879 -6.62,-9.129 -6.62,-15.718 V 211.59 h -17.38 v 71.551 h 17.38 v -13.77 c 2.41,4.629 5.68,8.18 9.83,10.629"
         style="fill:#ffffff;fill-opacity:1;fill-rule:nonzero;stroke:none"
         id="path30" />
      <path
         d="m 1249.26,262.809 c -3.75,-4.008 -5.62,-9.219 -5.62,-15.637 0,-6.422 1.87,-11.641 5.62,-15.652 3.74,-4.008 8.64,-6.02 14.71,-6.02 5.88,0 10.7,2.012 14.44,6.02 3.75,4.011 5.62,9.23 5.62,15.652 0,6.418 -1.87,11.629 -5.62,15.637 -3.74,4.019 -8.56,6.019 -14.44,6.019 -6.07,0 -10.97,-2 -14.71,-6.019 z m 34.3,16.332 c 5.66,-3.039 10.07,-7.289 13.24,-12.782 3.16,-5.48 4.75,-11.789 4.75,-18.918 0,-7.23 -1.59,-13.613 -4.75,-19.132 -3.17,-5.528 -7.58,-9.809 -13.24,-12.84 -5.66,-3.028 -12.19,-4.547 -19.59,-4.547 -7.49,0 -14.09,1.519 -19.8,4.547 -5.7,3.031 -10.14,7.312 -13.31,12.84 -3.16,5.519 -4.74,11.902 -4.74,19.132 0,7.129 1.58,13.438 4.74,18.918 3.17,5.493 7.61,9.743 13.31,12.782 5.71,3.019 12.31,4.539 19.8,4.539 7.4,0 13.93,-1.52 19.59,-4.539"
         style="fill:#ffffff;fill-opacity:1;fill-rule:nonzero;stroke:none"
         id="path32" />
      <path
         d="M 1382.73,283.141 V 211.59 h -17.52 v 13.242 c -4.82,-9.273 -13.11,-13.91 -24.88,-13.91 -8.02,0 -14.35,2.457 -18.99,7.359 -4.64,4.899 -6.95,11.59 -6.95,20.059 v 44.801 h 17.52 v -39.719 c 0,-4.992 1.36,-8.922 4.08,-11.774 2.72,-2.847 6.48,-4.269 11.3,-4.269 5.53,0.09 9.9,2.051 13.1,5.883 3.21,3.828 4.82,8.687 4.82,14.57 v 35.309 h 17.52"
         style="fill:#ffffff;fill-opacity:1;fill-rule:nonzero;stroke:none"
         id="path34" />
      <path
         d="m 1457.09,231.988 c 3.74,4.051 5.62,9.25 5.62,15.582 0,6.328 -1.88,11.5 -5.62,15.508 -3.75,4.024 -8.56,6.024 -14.45,6.024 -5.97,0 -10.83,-2 -14.57,-6.024 -3.75,-4.008 -5.62,-9.18 -5.62,-15.508 0,-6.422 1.87,-11.64 5.62,-15.648 3.74,-4.012 8.6,-6.024 14.57,-6.024 5.89,0 10.7,2.032 14.45,6.09 z m 7.15,47.071 c 5.13,-3.071 9.1,-7.368 11.91,-12.899 2.8,-5.531 4.21,-11.898 4.21,-19.121 0,-7.141 -1.38,-13.418 -4.15,-18.859 -2.76,-5.442 -6.68,-9.68 -11.77,-12.711 -5.08,-3.028 -10.96,-4.547 -17.65,-4.547 -5.35,0 -10.08,1.047 -14.18,3.148 -4.1,2.09 -7.48,5.149 -10.16,9.16 v -37.582 h -17.39 v 97.493 h 17.39 v -11.762 c 2.58,4 5.9,7.062 9.96,9.16 4.06,2.09 8.76,3.141 14.11,3.141 6.69,0 12.6,-1.539 17.72,-4.621"
         style="fill:#ffffff;fill-opacity:1;fill-rule:nonzero;stroke:none"
         id="path36" />
      <path
         d="m 281.859,415.301 c 8.172,4.828 14.539,11.551 19.11,20.168 4.562,8.601 6.851,18.441 6.851,29.511 0,11.059 -2.418,20.989 -7.246,29.782 -4.836,8.777 -11.426,15.59 -19.765,20.418 -8.348,4.832 -17.789,7.25 -28.332,7.25 h -35.84 V 408.059 h 37.687 c 10.184,0 19.367,2.41 27.535,7.242 z m 21.746,130.449 c 14.754,-7.82 26.219,-18.711 34.387,-32.68 8.172,-13.968 12.258,-29.91 12.258,-47.832 0,-17.918 -4.176,-33.859 -12.523,-47.828 -8.344,-13.969 -19.985,-24.859 -34.914,-32.68 -14.938,-7.82 -31.977,-11.718 -51.125,-11.718 H 175 V 557.48 h 78.27 c 18.793,0 35.574,-3.91 50.335,-11.73"
         style="fill:#ffffff;fill-opacity:1;fill-rule:nonzero;stroke:none"
         id="path38" />
      <path
         d="m 441.957,509.25 c 7.906,4.57 17.129,6.941 27.672,7.109 v -38.211 c -1.41,0.18 -3.52,0.274 -6.328,0.274 -12.477,0 -22.356,-3.391 -29.649,-10.152 -7.289,-6.758 -10.933,-15.77 -10.933,-27.008 v -68.25 h -40.582 v 141.769 h 40.582 v -25.562 c 4.918,8.781 11.332,15.461 19.238,20.031"
         style="fill:#ffffff;fill-opacity:1;fill-rule:nonzero;stroke:none"
         id="path40" />
      <path
         d="m 589.531,455.488 c -0.355,9.313 -3.34,16.782 -8.961,22.403 -5.625,5.621 -13.09,8.437 -22.398,8.437 -8.789,0 -16.125,-2.769 -22.008,-8.297 -5.887,-5.543 -9.617,-13.051 -11.199,-22.543 z m 20.422,40.852 c 11.86,-13.18 17.789,-31.539 17.789,-55.078 0,-4.223 -0.09,-7.473 -0.265,-9.75 H 525.754 c 2.281,-8.961 6.676,-15.942 13.176,-20.953 6.5,-5.008 14.32,-7.508 23.457,-7.508 6.676,0 13.086,1.269 19.238,3.82 6.145,2.539 11.684,6.277 16.602,11.199 l 21.347,-21.609 c -7.207,-8.082 -15.945,-14.27 -26.222,-18.582 -10.278,-4.309 -21.743,-6.457 -34.391,-6.457 -14.934,0 -27.981,2.988 -39.137,8.969 -11.156,5.968 -19.761,14.398 -25.824,25.289 -6.059,10.902 -9.09,23.449 -9.09,37.691 0,14.399 3.07,27.098 9.223,38.078 6.148,10.973 14.758,19.5 25.824,25.563 11.07,6.058 23.719,9.09 37.949,9.09 22.836,0 40.188,-6.59 52.047,-19.762"
         style="fill:#ffffff;fill-opacity:1;fill-rule:nonzero;stroke:none"
         id="path42" />
      <path
         d="m 726.035,483.289 c -7.558,2.371 -14.32,3.563 -20.293,3.563 -4.922,0 -8.871,-0.883 -11.859,-2.641 -2.988,-1.75 -4.481,-4.391 -4.481,-7.902 0,-3.868 2.02,-6.848 6.063,-8.957 4.039,-2.114 10.629,-4.481 19.765,-7.114 10.012,-3 18.27,-5.937 24.774,-8.828 6.496,-2.898 12.121,-7.211 16.863,-12.91 4.742,-5.719 7.113,-13.23 7.113,-22.539 0,-14.051 -5.402,-24.992 -16.207,-32.813 -10.8,-7.816 -24.636,-11.726 -41.503,-11.726 -11.598,0 -22.754,1.707 -33.469,5.137 -10.719,3.429 -20.028,8.3 -27.934,14.632 l 13.176,27.411 c 7.199,-5.633 15.238,-9.981 24.113,-13.051 8.867,-3.082 17.262,-4.61 25.168,-4.61 5.446,0 9.789,0.918 13.043,2.77 3.25,1.84 4.875,4.609 4.875,8.301 0,4.039 -2.062,7.199 -6.191,9.488 -4.129,2.281 -10.766,4.738 -19.899,7.379 -9.664,2.801 -17.703,5.609 -24.113,8.43 -6.414,2.812 -11.902,7.07 -16.469,12.781 -4.57,5.711 -6.851,13.129 -6.851,22.269 0,14.051 5.269,24.942 15.812,32.672 10.539,7.731 23.891,11.598 40.059,11.598 9.656,0 19.324,-1.367 28.988,-4.09 9.66,-2.719 18.445,-6.629 26.352,-11.719 l -13.969,-27.672 c -7.734,4.391 -15.375,7.774 -22.926,10.141"
         style="fill:#ffffff;fill-opacity:1;fill-rule:nonzero;stroke:none"
         id="path44" />
      <path
         d="m 886.129,415.039 c 6.59,7.293 9.883,16.731 9.883,28.332 0,11.598 -3.293,21.027 -9.883,28.328 -6.59,7.281 -15.07,10.93 -25.43,10.93 -10.543,0 -19.109,-3.649 -25.695,-10.93 -6.59,-7.301 -9.977,-16.73 -10.149,-28.328 0.172,-11.601 3.559,-21.039 10.149,-28.332 6.586,-7.289 15.152,-10.937 25.695,-10.937 10.36,0 18.84,3.648 25.43,10.937 z m 50.203,153.5 V 373.012 h -40.32 v 20.816 c -5.102,-7.379 -11.426,-12.957 -18.977,-16.738 -7.555,-3.781 -16.168,-5.668 -25.824,-5.668 -13.356,0 -25.082,3.027 -35.184,9.09 -10.105,6.058 -17.918,14.629 -23.453,25.699 -5.535,11.07 -8.301,23.809 -8.301,38.211 0,14.226 2.723,26.789 8.168,37.68 5.446,10.898 13.176,19.328 23.192,25.308 10.015,5.969 21.519,8.949 34.523,8.949 20.028,0 35.313,-7.461 45.856,-22.39 v 74.57 h 40.32"
         style="fill:#ffffff;fill-opacity:1;fill-rule:nonzero;stroke:none"
         id="path46" />
      <path
         d="m 1074.68,455.488 c -0.35,9.313 -3.34,16.782 -8.96,22.403 -5.62,5.621 -13.09,8.437 -22.4,8.437 -8.79,0 -16.12,-2.769 -22,-8.297 -5.89,-5.543 -9.62,-13.051 -11.2,-22.543 z m 20.43,40.852 c 11.85,-13.18 17.78,-31.539 17.78,-55.078 0,-4.223 -0.09,-7.473 -0.26,-9.75 h -101.72 c 2.28,-8.961 6.67,-15.942 13.17,-20.953 6.5,-5.008 14.32,-7.508 23.46,-7.508 6.67,0 13.08,1.269 19.23,3.82 6.15,2.539 11.69,6.277 16.61,11.199 l 21.35,-21.609 c -7.21,-8.082 -15.95,-14.27 -26.23,-18.582 -10.27,-4.309 -21.74,-6.457 -34.39,-6.457 -14.93,0 -27.98,2.988 -39.13,8.969 -11.164,5.968 -19.765,14.398 -25.828,25.289 -6.062,10.902 -9.089,23.449 -9.089,37.691 0,14.399 3.07,27.098 9.222,38.078 6.149,10.973 14.754,19.5 25.825,25.563 11.07,6.058 23.72,9.09 37.95,9.09 22.83,0 40.19,-6.59 52.05,-19.762"
         style="fill:#ffffff;fill-opacity:1;fill-rule:nonzero;stroke:none"
         id="path48" />
      <path
         d="m 1272.2,501.609 c 9.39,-9.839 14.1,-23.019 14.1,-39.531 v -89.066 h -40.59 v 77.207 c 0,8.961 -2.5,16.031 -7.51,21.222 -5.01,5.18 -11.82,7.77 -20.42,7.77 -10.02,-0.18 -17.92,-3.652 -23.72,-10.41 -5.8,-6.77 -8.7,-15.422 -8.7,-25.961 v -69.828 h -40.58 v 141.769 h 40.58 v -24.769 c 9.84,17.218 26.18,26 49.02,26.347 15.81,0 28.42,-4.918 37.82,-14.75"
         style="fill:#ffffff;fill-opacity:1;fill-rule:nonzero;stroke:none"
         id="path50" />
      <path
         d="m 1463.91,509.25 c 7.91,4.57 17.13,6.941 27.67,7.109 v -38.211 c -1.41,0.18 -3.52,0.274 -6.32,0.274 -12.48,0 -22.36,-3.391 -29.65,-10.152 -7.29,-6.758 -10.94,-15.77 -10.94,-27.008 v -68.25 h -40.58 v 141.769 h 40.58 v -25.562 c 4.92,8.781 11.33,15.461 19.24,20.031"
         style="fill:#ffffff;fill-opacity:1;fill-rule:nonzero;stroke:none"
         id="path52" />
      <path
         d="m 1624.13,416.09 c 6.5,7.289 9.75,16.742 9.75,28.332 0,11.418 -3.25,20.777 -9.75,28.066 -6.5,7.293 -14.93,10.934 -25.29,10.934 -10.37,0 -18.85,-3.641 -25.44,-10.934 -6.59,-7.289 -9.88,-16.648 -9.88,-28.066 0,-11.774 3.29,-21.262 9.88,-28.461 6.59,-7.211 15.07,-10.801 25.44,-10.801 10.36,0 18.79,3.641 25.29,10.93 z m 19.11,90.922 c 10.1,-6.063 17.91,-14.621 23.46,-25.692 5.53,-11.07 8.3,-23.808 8.3,-38.218 0,-14.223 -2.73,-26.743 -8.17,-37.551 -5.46,-10.801 -13.14,-19.192 -23.06,-25.16 -9.93,-5.981 -21.48,-8.969 -34.66,-8.969 -9.84,0 -18.58,1.887 -26.22,5.668 -7.64,3.781 -14.1,9.269 -19.37,16.469 v -20.547 h -40.58 v 195.527 h 40.58 v -74.57 c 5.1,7.203 11.47,12.691 19.11,16.472 7.64,3.778 16.21,5.661 25.69,5.661 13.18,0 24.81,-3.032 34.92,-9.09"
         style="fill:#ffffff;fill-opacity:1;fill-rule:nonzero;stroke:none"
         id="path54" />
      <path
         d="m 1345.19,413.352 h 20.17 v -40.34 h -40.34 v 20.168 l 20.17,20.172"
         style="fill:#ffffff;fill-opacity:1;fill-rule:nonzero;stroke:none"
         id="path56" />
      <path
         d="m 1002.3,1382.48 h -26.331 v 59.84 l 13.172,13.16 13.159,-13.16 z m 11.53,-5.77 v 68 l -1.68,4.08 -18.931,18.92 h -8.156 l -18.942,-18.92 -1.687,-4.08 v -68 l 5.765,-5.77 h 37.871 l 5.76,5.77"
         style="fill:#ffffff;fill-opacity:1;fill-rule:nonzero;stroke:none"
         id="path58" />
      <path
         d="m 817.887,1157.63 167.289,33.64 74.244,-239.594 z m -42.77,-250.876 22.992,109.116 -0.73,4.21 -8.621,14.06 14.965,11.84 2.183,4.52 v 32.09 c 0,22.04 0.442,45.22 3.348,67.24 L 1056.95,938.609 Z M 919.648,745.461 577.035,683.91 1051.33,918.301 Z m -339.257,-26.441 1.125,3.41 v 72.308 l 22.554,19.75 1.973,4.332 v 38.387 L 685.594,817.23 673.156,744.281 556.641,686.699 Z m 69.66,190.933 1.609,4 v 76.094 l -1.687,4.078 -5.243,5.227 v 15.418 l 18.68,13.38 2.086,2.76 12.223,34.66 h 0.508 l 11.253,-34.53 2.129,-2.89 18.668,-13.38 v -15.418 l -5.226,-5.227 -1.692,-4.078 0.082,-68.195 -15.82,-92.731 -77.758,39.082 z m 27.984,196.647 8.156,-18.54 -7.828,-18.44 h -0.777 l -7.809,18.43 z M 775.828,895.215 1038.69,924.93 843.809,828.621 807.551,810.699 Z m -40.773,19.898 28.015,-18.758 34.082,-90.796 -10.859,-5.368 -100.348,-49.589 28.051,164.511 z m 172.336,384.917 71.765,-98.21 -166.734,-33.52 c 11.027,51.34 39.183,90.29 94.969,131.73 z m 14.41,59.41 16.515,12.69 2.254,4.58 v 98.3 l -1.687,4.08 -9.035,9.03 25.086,24.95 1.679,3.59 2.895,33.57 20.742,18.67 1.668,5.96 -1.871,6.16 7.832,12.05 h 2.523 l 7.817,-12.04 -1.867,-6.17 1.668,-5.96 20.74,-18.67 2.91,-33.57 1.67,-3.59 25.08,-24.95 -9.03,-9.03 -1.69,-4.08 v -98.3 l 2.25,-4.58 14.79,-11.36 -66.842,-151.35 -73.218,100.19 z m 73.488,-161.85 71.831,162.66 -1.75,6.91 -16.14,12.39 v 93.08 l 11.44,11.42 -0.01,8.17 -27.68,27.54 -2.92,33.72 -1.89,3.8 -19.72,17.74 1.59,5.22 -0.69,4.82 -8.35,12.87 v 44.41 l -0.88,3.06 -6.093,9.75 h -9.777 l -6.094,-9.75 -0.879,-3.06 v -44.41 l -8.359,-12.87 -0.688,-4.82 1.586,-5.22 -19.714,-17.74 -1.891,-3.8 -2.906,-33.72 -27.696,-27.54 -0.007,-8.17 11.433,-11.42 v -93.08 l -16.121,-12.39 -2.199,-3.76 -7.442,-52.11 c -63.234,-46.33 -93.41,-89.75 -103.843,-149.34 l 0.011,-0.01 -0.023,-0.01 c -4.441,-25.8 -5.047,-53.38 -5.047,-79.34 v -29.29 l -16.789,-13.3 -1.328,-7.54 10.094,-16.46 -22.407,-106.344 -23.921,16.016 -3.207,0.98 h -21.915 v 61.004 l 5.227,5.231 1.691,4.078 v 20.765 l -2.414,4.68 -19.543,14.02 -10.039,30.68 7.965,19.03 -0.023,4.29 -12.223,27.75 -5.285,3.45 h -4.414 l -5.274,-3.43 -12.347,-27.75 -0.035,-4.31 7.91,-19.03 -10.871,-30.63 -19.618,-14.07 -2.41,-4.68 v -20.765 l 1.692,-4.078 5.238,-5.231 v -71.379 l -44.008,-45.718 -1.609,-4 v -45.118 l -22.555,-19.75 -1.973,-4.339 V 724.32 l -36.671,-49.871 5.668,-9.09 384.929,69.141 3.563,2.18 147.931,194.199 0.93,5.203 -81.041,261.508"
         style="fill:#ffffff;fill-opacity:1;fill-rule:nonzero;stroke:none"
         id="path60" />
    </g>
  </g>
</svg>
