<?xml version="1.0" encoding="UTF-8"?>
<svg id="uuid-7b17d64b-37e9-4912-9d07-7ec8d76dece0" data-name="BG" xmlns="http://www.w3.org/2000/svg" width="291" height="135" viewBox="0 0 291 135">
  <defs>
    <style>
      .uuid-2d1e7667-1abe-4e2d-ba02-aa5f4a500748 {
        fill: none;
      }

      .uuid-1852e54c-ce0e-481a-8b8e-1f3995534b64 {
        fill: #3c3c3b;
      }
    </style>
  </defs>
  <g>
    <path class="uuid-1852e54c-ce0e-481a-8b8e-1f3995534b64" d="M69.54712,49.31488l-.15979-.62793-1.46698-1.12744v-8.46265l1.03986-1.03925-.0011-.74268-2.51691-2.50415-.26532-3.06659-.17212-.34473-1.79272-1.6134.14441-.47485-.06244-.43793-.75916-1.16986v-4.0387l-.0799-.2782-.5542-.8866h-.88916l-.5542.8866-.0799.2782v4.03815l-.76013,1.17041-.0625.43793.14447.47485-1.79272,1.6134-.17212.34473-.26428,3.06659-2.51801,2.50415-.00098.74268,1.03973,1.03925v8.46326l-1.46594,1.12683-.19977.34161-.67688,4.73792c-5.74951,4.21313-8.49335,8.16095-9.4422,13.57953l.00104.00092-.00208.00067c-.40363,2.34589-.45892,4.85358-.45892,7.21436v2.66345l-1.52637,1.2088-.12091.68536.91791,1.49664-2.03735,9.6698-2.17505-1.45612-.29193-.08905h-1.99249v-5.54718l.47528-.47534.15369-.37085v-1.888l-.21924-.42615-1.77728-1.27435-.91278-2.78955.72424-1.73108-.00208-.38983-1.11145-2.52319-.48041-.31293h-.40161l-.47943.3114-1.12274,2.52313-.00311.39142.71918,1.73108-.98853,2.78546-1.78357,1.27844-.21918.42615v1.888l.15363.37085.47638.47534v6.49066l-4.00134,4.15704-.14648.36359v4.10284l-2.05084,1.79578-.17926.39435v6.6402l-3.33447,4.5351.51526.82672,35.00098-6.2868.32373-.19873,13.45148-17.65771.08405-.47333-7.36884-23.77881,6.53186-14.78967ZM60.71954,41.48315l1.73663-1.73639,1.73639,1.73639v6.23749h-3.47302v-6.23749ZM55.02307,54.79034l6.52551,8.92969-15.16107,3.04797c1.00293-4.66797,3.56293-8.2099,8.63556-11.97766ZM33.72461,105.32312l-10.59473,5.23578,2.15973-2.93823.10242-.31042v-6.57458l2.0509-1.79584.1792-.39441v-3.49011l7.2334,3.63483-1.13092,6.633ZM44.01166,100.23926l-9.12408,4.50922,2.55048-14.95868h1.91461l2.54773,1.70569,3.09882,8.25568-.98755.4881ZM49.24158,97.65485l-3.29681,1.62921-2.88446-7.68475,23.90149-2.70172-17.72021,8.75726ZM68.62238,87.6535l-25.62665,2.89679,2.09058-9.92181-.06659-.38312-.78363-1.27844,1.36041-1.07666.19873-.41077v-2.91754c0-2.00372.03992-4.112.3042-6.1142l22.52295,19.20575Z"/>
    <path class="uuid-1852e54c-ce0e-481a-8b8e-1f3995534b64" d="M96.43835,84.52545c.38477-.62878.57715-1.38733.57715-2.27576,0-1.24658-.40039-2.21082-1.20276-2.89355-.80237-.68353-1.94019-1.02448-3.41357-1.02448h-4.74707v11.37952h2.17798v-3.34869h2.56909c.18372,0,.31909-.00549.40576-.01642l1.96777,3.36511h2.48682l-2.5033-3.77179c.73669-.3136,1.29736-.78516,1.68213-1.41394ZM92.39917,84.44409h-2.56909v-4.21051h2.56909c.82349,0,1.45215.17365,1.8855.52008.43323.34723.65063.86725.65063,1.56091,0,.70465-.21741,1.23566-.65063,1.59308-.43335.35736-1.06201.53644-1.8855.53644Z"/>
    <path class="uuid-1852e54c-ce0e-481a-8b8e-1f3995534b64" d="M105.22546,85.30591c0,.71478-.19556,1.30603-.58582,1.77136-.3894.46606-.92114.70459-1.59302.71558-.58496,0-1.04321-.17285-1.37329-.52008-.33081-.34644-.49585-.82349-.49585-1.43036v-4.82837h-2.12939v5.44617c0,1.02917.28149,1.84253.84534,2.43842.56311.59595,1.33264.89392,2.30786.89392,1.43103,0,2.43835-.56311,3.02417-1.6908v1.60944h2.12952v-8.69714h-2.12952v4.29187Z"/>
    <path class="uuid-1852e54c-ce0e-481a-8b8e-1f3995534b64" d="M117.2627,81.50989c-.62329-.37384-1.34131-.56073-2.15381-.56073-.65063,0-1.22229.12744-1.71497.38165-.49353.25494-.89709.6264-1.21143,1.11359v-4.79547h-2.11304v12.06226h2.11304v-1.41394c.32532.48724.73743.8587,1.23572,1.11285.49805.25494,1.07288.38245,1.72363.38245.8125,0,1.52808-.18457,2.14502-.55292.61792-.36835,1.09497-.88293,1.43115-1.54456.33557-.66083.50366-1.42487.50366-2.29218,0-.87744-.17041-1.65247-.51221-2.32422-.34106-.67181-.82349-1.19495-1.44678-1.56879ZM116.39307,87.23212c-.4552.49347-1.04016.73981-1.75574.73981-.72571,0-1.31702-.24402-1.77209-.73199-.45508-.48724-.68274-1.12146-.68274-1.90192,0-.76953.22766-1.39752.68274-1.88556.45508-.48798,1.04639-.7312,1.77209-.7312.71558,0,1.30054.24323,1.75574.7312.45508.48804.68262,1.11603.68262,1.88556s-.22754,1.40143-.68262,1.8941Z"/>
    <path class="uuid-1852e54c-ce0e-481a-8b8e-1f3995534b64" d="M123.98511,87.33771l-2.47046-6.32367h-2.19519l3.59265,8.5509-.25952.56854c-.27148.58575-.69373.87823-1.26855.87823-.1947,0-.37927-.03516-.55286-.10559-.17285-.07037-.36292-.1814-.56848-.33313l-.9104,1.60944c.33545.27063.67407.46844,1.01587.59283.3418.12512.72339.18689,1.14648.18689.69287,0,1.29199-.18146,1.79565-.54431.50439-.36285.89148-.90247,1.16284-1.61725l3.90161-9.78656h-2.12952l-2.26013,6.32367Z"/>
    <path class="uuid-1852e54c-ce0e-481a-8b8e-1f3995534b64" d="M141.20032,85.02911c0,.90009-.24634,1.60394-.73987,2.11383-.49268.50909-1.16748.76404-2.02393.76404-.85632,0-1.53906-.25494-2.0481-.76404-.50916-.50989-.76416-1.21375-.76416-2.11383v-6.69745h-2.17798v6.69745c0,.98615.2002,1.84558.60144,2.57678.40039.73126.97754,1.29272,1.73145,1.68298.75305.38947,1.63916.58496,2.65735.58496,1.00806,0,1.88318-.1955,2.62622-.58496.74207-.39026,1.31372-.95172,1.71497-1.68298.40039-.7312.60144-1.59064.60144-2.57678v-6.69745h-2.17883v6.69745Z"/>
    <path class="uuid-1852e54c-ce0e-481a-8b8e-1f3995534b64" d="M150.45117,84.97278c-.39038-.17908-.88916-.36053-1.49609-.5451-.57483-.16266-.99475-.31671-1.25989-.46295-.26587-.14624-.39807-.35504-.39807-.6264,0-.25964.10559-.45203.31665-.57715.21118-.12439.49585-.18695.85327-.18695.37939,0,.79382.07117,1.24426.21198.44958.14075.88611.33551,1.30835.58496l.76404-1.52814c-.43323-.29248-.92896-.52002-1.48743-.68274-.55835-.16266-1.12463-.24396-1.69861-.24396-.94312,0-1.72595.22522-2.34924.67487-.62329.44971-.93457,1.10272-.93457,1.95905,0,.55212.13538.99945.40588,1.34119.27136.341.59131.59595.95959.7641s.84534.33862,1.4303.51141c.60693.18457,1.04565.35272,1.31702.50446.27063.15173.40662.37927.40662.68274,0,.27057-.11646.47388-.34961.60919-.23376.13605-.54492.20331-.9353.20331-.48706,0-1.00244-.0946-1.5437-.28467-.54272-.18921-1.00806-.45197-1.39832-.78827l-.73206,1.47961c.44507.39026.98633.69055,1.62598.90247.63965.21118,1.29504.31677,1.9668.31677.98621,0,1.80493-.2276,2.45483-.68274.65063-.45514.97607-1.10583.97607-1.95123,0-.57397-.14392-1.03699-.43091-1.38965-.28784-.35193-.62646-.61786-1.01587-.79614Z"/>
    <path class="uuid-1852e54c-ce0e-481a-8b8e-1f3995534b64" d="M157.3269,80.94916c-.85645,0-1.62036.18689-2.29224.56073-.67175.37384-1.19495.89697-1.56885,1.56879-.37378.67175-.56067,1.44128-.56067,2.30859,0,.86652.18372,1.63367.55286,2.29999.36841.66632.89087,1.18402,1.56885,1.55237.67725.36835,1.46008.55292,2.34851.55292.75854,0,1.44983-.12982,2.07312-.39026s1.15125-.62878,1.58521-1.10504l-1.13867-1.18713c-.30334.31439-.65759.55524-1.06421.72339-.40674.16815-.83215.25183-1.27637.25183-.63965,0-1.17847-.17596-1.61719-.52789-.43958-.35193-.729-.83759-.86975-1.45538h6.42139c.01013-.14075.01575-.35193.01575-.63348,0-1.43109-.34961-2.54163-1.0481-3.33307-.6991-.79065-1.74231-1.18634-3.12964-1.18634ZM155.01831,84.68811c.09766-.65063.35498-1.1629.77271-1.53674.41675-.37378.93445-.56073,1.55225-.56073.66089,0,1.19189.19006,1.59302.56934.40125.37933.6123.88843.63428,1.52814h-4.55225Z"/>
    <path class="uuid-1852e54c-ce0e-481a-8b8e-1f3995534b64" d="M165.43896,82.68842v-1.67438h-2.11304v8.69714h2.11304v-4.19409c0-.80164.26831-1.43896.80469-1.91052.53662-.47083,1.25452-.67963,2.15381-.62567v-2.04816c-.67175.01093-1.25977.16498-1.76343.46295-.50439.29877-.90259.72968-1.19507,1.29272Z"/>
    <path class="uuid-1852e54c-ce0e-481a-8b8e-1f3995534b64" d="M177.21655,80.64807c.60144-.341,1.26001-.51227,1.97559-.51227.57397,0,1.14563.1142,1.71497.3418.56848.22754,1.06982.54742,1.50378.95874l1.23486-1.60944c-.57397-.50909-1.25671-.91028-2.0481-1.20276-.7915-.29248-1.59302-.43872-2.40552-.43872-1.13794,0-2.17651.25726-3.1134.77185-.93762.51538-1.67749,1.21375-2.21863,2.09747-.54272.88293-.81335,1.8667-.81335,2.95062s.26587,2.07245.79688,2.96631c.53113.89465,1.25452,1.60162,2.17029,2.1217s1.93164.78046,3.04761.78046c.7804,0,1.57739-.13843,2.38989-.41449.8125-.27679,1.51709-.63654,2.11304-1.08154v-4.32391h-1.90186v3.13757c-.39038.22754-.79932.4035-1.22705.52863-.42859.12433-.83765.18689-1.22705.18689-.72656,0-1.38818-.17358-1.98413-.52081-.59583-.34644-1.06982-.81799-1.42163-1.41394-.35278-.59589-.52869-1.25208-.52869-1.96686,0-.70459.17358-1.35449.52002-1.95117.34729-.59595.82117-1.06439,1.42249-1.40613Z"/>
    <path class="uuid-1852e54c-ce0e-481a-8b8e-1f3995534b64" d="M188.1167,82.68842v-1.67438h-2.11304v8.69714h2.11304v-4.19409c0-.80164.26831-1.43896.80481-1.91052.5365-.47083,1.25439-.67963,2.15369-.62567v-2.04816c-.67175.01093-1.25977.16498-1.76343.46295-.50439.29877-.90259.72968-1.19507,1.29272Z"/>
    <path class="uuid-1852e54c-ce0e-481a-8b8e-1f3995534b64" d="M198.73999,81.50128c-.68811-.36755-1.48193-.55212-2.38123-.55212-.91028,0-1.71277.18457-2.40637.55212-.6936.36914-1.23242.88605-1.61719,1.55316-.38477.66626-.57715,1.43268-.57715,2.29999,0,.87823.19238,1.6532.57715,2.32501.38477.67175.92358,1.19183,1.61719,1.56018s1.49609.55292,2.40637.55292c.89929,0,1.69312-.18457,2.38123-.55292.68823-.36835,1.22485-.88843,1.60962-1.56018.38477-.67181.57715-1.44678.57715-2.32501,0-.86731-.19238-1.63373-.57715-2.29999-.38477-.66711-.92139-1.18402-1.60962-1.55316ZM198.1145,87.28918c-.4552.48724-1.04102.7312-1.75574.7312-.73743,0-1.33337-.24396-1.78857-.7312-.4552-.48798-.68274-1.12225-.68274-1.90192,0-.78052.22754-1.41473.68274-1.90192.4552-.48804,1.05115-.73199,1.78857-.73199.71472,0,1.30054.24396,1.75574.73199.45508.48718.68262,1.1214.68262,1.90192,0,.77966-.22754,1.41394-.68262,1.90192Z"/>
    <path class="uuid-1852e54c-ce0e-481a-8b8e-1f3995534b64" d="M208.66504,85.30591c0,.71478-.19556,1.30603-.58569,1.77136-.38953.46606-.92139.70459-1.59314.71558-.58496,0-1.04321-.17285-1.37317-.52008-.33081-.34644-.49585-.82349-.49585-1.43036v-4.82837h-2.12964v5.44617c0,1.02917.28162,1.84253.84546,2.43842.56311.59595,1.33264.89392,2.30786.89392,1.43115,0,2.43848-.56311,3.02417-1.6908v1.60944h2.12939v-8.69714h-2.12939v4.29187Z"/>
    <path class="uuid-1852e54c-ce0e-481a-8b8e-1f3995534b64" d="M220.70227,81.50989c-.62329-.37384-1.34119-.56073-2.15369-.56073-.65076,0-1.22241.12744-1.71509.38165-.49341.25494-.89697.6264-1.21143,1.11359v-1.43036h-2.11304v11.85114h2.11304v-4.56793c.32532.48724.73755.8587,1.2356,1.11285.49829.25494,1.073.38245,1.72363.38245.8125,0,1.52808-.18457,2.14526-.55292.61768-.36835,1.09473-.88293,1.43115-1.54456.33545-.66083.50354-1.42487.50354-2.29218,0-.87744-.17053-1.65247-.51221-2.32422-.34094-.67181-.82349-1.19495-1.44678-1.56879ZM219.83264,87.23212c-.4552.49347-1.04016.73981-1.75574.73981-.72571,0-1.31689-.24402-1.77209-.73199-.4552-.48724-.68274-1.12146-.68274-1.90192,0-.76953.22754-1.39752.68274-1.88556.4552-.48798,1.04639-.7312,1.77209-.7312.71558,0,1.30054.24323,1.75574.7312.4552.48804.68274,1.11603.68274,1.88556s-.22754,1.40143-.68274,1.8941Z"/>
    <path class="uuid-1852e54c-ce0e-481a-8b8e-1f3995534b64" d="M103.29614,49.09412c-1.79395-.9502-3.83362-1.42566-6.11865-1.42566h-9.51367v22.42279h9.32202c2.32739,0,4.39819-.47473,6.21411-1.42566,1.81433-.9494,3.22986-2.27423,4.24414-3.97205,1.0144-1.69781,1.52185-3.63568,1.52185-5.81372s-.49658-4.11591-1.48975-5.81372c-.99329-1.69781-2.38684-3.02179-4.18005-3.97198ZM102.97559,62.49915c-.55542,1.04718-1.32959,1.86359-2.32275,2.45093-.99243.58734-2.10913.88055-3.34717.88055h-4.58044v-13.90161h4.35608c1.28174,0,2.42896.29327,3.44409.88055,1.01343.58734,1.81433,1.41473,2.40234,2.48224.58667,1.0683.88062,2.27496.88062,3.62012s-.27759,2.54163-.83276,3.58722Z"/>
    <path class="uuid-1852e54c-ce0e-481a-8b8e-1f3995534b64" d="M117.7749,61.79449c0-1.36621.44263-2.46106,1.32874-3.28302.88611-.8219,2.08728-1.23328,3.60364-1.23328.3418,0,.59827.01099.76953.03204v-4.64453c-1.28174.02112-2.40247.30969-3.36353.86493-.96118.55524-1.74097,1.367-2.33838,2.43451v-3.10706h-4.93311v17.23315h4.93311v-8.29675Z"/>
    <path class="uuid-1852e54c-ce0e-481a-8b8e-1f3995534b64" d="M138.51562,69.49847c1.24878-.52319,2.31079-1.27551,3.18677-2.25781l-2.59485-2.62689c-.59753.59827-1.27087,1.05188-2.0177,1.36157-.74756.30969-1.52735.46454-2.33826.46454-1.11047,0-2.06152-.30499-2.85144-.91345-.78979-.6084-1.32397-1.45691-1.60156-2.54633h12.36499c.021-.27765.03198-.67255.03198-1.18561,0-2.86145-.72095-5.09265-2.16235-6.69427-1.44128-1.60162-3.55054-2.40247-6.32593-2.40247-1.72998,0-3.26733.36835-4.61328,1.10504-1.34521.73669-2.3916,1.77289-3.13916,3.10706-.74756,1.33496-1.12061,2.87793-1.12061,4.62897,0,1.72986.36829,3.25641,1.10498,4.58038.73669,1.32404,1.78223,2.3493,3.13916,3.07501,1.35596.72656,2.94116,1.08942,4.75635,1.08942,1.5376,0,2.93115-.26123,4.18091-.78516ZM131.56396,57.32593c.71558-.67255,1.60706-1.00885,2.67529-1.00885,1.13159,0,2.03882.34174,2.72241,1.02527.68347.68347,1.04639,1.5907,1.08936,2.72308h-7.8479c.19165-1.1535.64526-2.06616,1.36084-2.7395Z"/>
    <path class="uuid-1852e54c-ce0e-481a-8b8e-1f3995534b64" d="M159.25537,64.8703c0-1.13239-.28784-2.04504-.86414-2.7395-.57715-.69366-1.26062-1.21686-2.05054-1.56958-.78992-.35193-1.79407-.70929-3.01086-1.07294-1.1106-.31989-1.91138-.60846-2.40247-.86493-.49182-.25574-.73669-.61865-.73669-1.08862,0-.427.18066-.74762.54431-.96112.36292-.2135.84314-.32068,1.44128-.32068.72583,0,1.54846.14471,2.46655.4325.91821.28857,1.84717.69995,2.78735,1.23328l1.69775-3.36359c-.96118-.61859-2.02942-1.09406-3.20325-1.42487-1.17468-.33081-2.3501-.49658-3.52393-.49658-1.96521,0-3.58801.46997-4.86902,1.40924-1.28101.94-1.92224,2.26398-1.92224,3.97198,0,1.11053.27759,2.013.83289,2.70667.55518.69446,1.22229,1.21216,2.00195,1.55389.77979.3418,1.75659.68353,2.93115,1.02448,1.1106.32068,1.91675.62018,2.41895.89703.50122.27838.7522.66241.7522,1.1535,0,.44812-.19702.78442-.59192,1.00885-.39575.22443-.92444.3363-1.58606.3363-.96118,0-1.98096-.18616-3.05933-.56073-1.07837-.37305-2.05518-.90173-2.9303-1.58521l-1.60168,3.33148c.96045.76874,2.09204,1.36157,3.3949,1.77759,1.30286.41687,2.65894.62488,4.06824.62488,2.05054,0,3.73193-.47546,5.04492-1.42566,1.31384-.9502,1.96997-2.27966,1.96997-3.98767Z"/>
    <path class="uuid-1852e54c-ce0e-481a-8b8e-1f3995534b64" d="M175.30371,67.56055v2.5307h4.90112v-23.76794h-4.90112v9.0647c-1.28101-1.81433-3.13916-2.72229-5.57361-2.72229-1.58044,0-2.97888.36285-4.19641,1.08862-1.21692.7265-2.15698,1.75177-2.8186,3.07574-.66235,1.32404-.99316,2.85059-.99316,4.58044,0,1.75104.3363,3.29944,1.00879,4.64459.67334,1.34509,1.6228,2.38678,2.85144,3.12347,1.22778.73669,2.65271,1.10504,4.27625,1.10504,1.17383,0,2.22095-.22913,3.13916-.68896.91797-.45911,1.68677-1.13715,2.30615-2.03412ZM171.01196,66.31158c-1.28186,0-2.32275-.44342-3.12354-1.32947s-1.21216-2.03406-1.2334-3.4433c.02124-1.41003.43262-2.55731,1.2334-3.44415.80078-.88525,1.84167-1.32867,3.12354-1.32867,1.25903,0,2.28979.44342,3.09058,1.32867.80078.88684,1.20117,2.03412,1.20117,3.44415,0,1.40924-.40039,2.55725-1.20117,3.4433s-1.83154,1.32947-3.09058,1.32947Z"/>
    <path class="uuid-1852e54c-ce0e-481a-8b8e-1f3995534b64" d="M193.17822,52.69775c-1.72998,0-3.26746.36835-4.61328,1.10504-1.34521.73669-2.3916,1.77289-3.13916,3.10706-.74768,1.33496-1.12073,2.87793-1.12073,4.62897,0,1.72986.36829,3.25641,1.1051,4.58038.73657,1.32404,1.78223,2.3493,3.13916,3.07501,1.35596.72656,2.94116,1.08942,4.75635,1.08942,1.53748,0,2.93115-.26123,4.18079-.78516,1.2489-.52319,2.31091-1.27551,3.18689-2.25781l-2.59497-2.62689c-.59741.59827-1.27075,1.05188-2.01758,1.36157-.74756.30969-1.52734.46454-2.33838.46454-1.11047,0-2.0614-.30499-2.85132-.91345-.78979-.6084-1.32397-1.45691-1.60156-2.54633h12.36487c.02112-.27765.0321-.67255.0321-1.18561,0-2.86145-.72107-5.09265-2.16235-6.69427-1.44141-1.60162-3.55054-2.40247-6.32593-2.40247ZM189.17407,60.06543c.19165-1.1535.64526-2.06616,1.36084-2.7395.71558-.67255,1.60706-1.00885,2.67529-1.00885,1.13159,0,2.03882.34174,2.72241,1.02527.68335.68347,1.04626,1.5907,1.08936,2.72308h-7.8479Z"/>
    <path class="uuid-1852e54c-ce0e-481a-8b8e-1f3995534b64" d="M216.43311,52.66571c-2.77637.04303-4.76196,1.11047-5.95764,3.20325v-3.01086h-4.93323v17.23315h4.93323v-8.48834c0-1.28174.35193-2.33282,1.05652-3.15552.70459-.82196,1.66577-1.24347,2.88342-1.26538,1.04553,0,1.87378.31519,2.48218.9447.60852.63037.91272,1.48981.91272,2.57922v9.38531h4.93311v-10.82666c0-2.00751-.57178-3.60913-1.7135-4.80487-1.14258-1.19574-2.67456-1.79401-4.5968-1.79401Z"/>
    <path class="uuid-1852e54c-ce0e-481a-8b8e-1f3995534b64" d="M241.995,55.96515v-3.10706h-4.93323v17.23315h4.93323v-8.29675c0-1.36621.44263-2.46106,1.32874-3.28302.88599-.8219,2.08716-1.23328,3.60364-1.23328.34167,0,.59827.01099.76953.03204v-4.64453c-1.28186.02112-2.40247.30969-3.36365.86493-.96106.55524-1.74072,1.367-2.33826,2.43451Z"/>
    <path class="uuid-1852e54c-ce0e-481a-8b8e-1f3995534b64" d="M268.98267,56.92548c-.67419-1.34509-1.62354-2.38599-2.85217-3.12268-1.22791-.73669-2.64258-1.10504-4.24426-1.10504-1.15259,0-2.19434.22913-3.12256.68823-.9292.45984-1.70337,1.12689-2.32275,2.00201v-9.0647h-4.93311v23.76794h4.93311v-2.49866c.6405.87592,1.42566,1.54297,2.354,2.00208.92896.45984,1.99097.68896,3.1875.68896,1.60168,0,3.00549-.36285,4.21216-1.08942,1.20679-.72571,2.1405-1.74548,2.80371-3.05933.66162-1.31305.99316-2.83496.99316-4.56403,0-1.75104-.3363-3.29944-1.00879-4.64539ZM263.80859,64.85388c-.79065.88605-1.81592,1.32947-3.07495,1.32947-1.26074,0-2.29065-.43713-3.09155-1.31305-.80078-.87592-1.20117-2.02863-1.20117-3.45978,0-1.38812.40039-2.52521,1.20117-3.41125.8009-.88605,1.83081-1.32947,3.09155-1.32947,1.25903,0,2.2843.44342,3.07495,1.32947.78979.88605,1.18481,2.02313,1.18481,3.41125,0,1.40924-.39502,2.55731-1.18481,3.44336Z"/>
    <polygon class="uuid-1852e54c-ce0e-481a-8b8e-1f3995534b64" points="227.45117 67.6394 227.45117 70.09106 232.35449 70.09106 232.35449 65.18781 229.90283 65.18781 227.45117 67.6394"/>
  </g>
  <rect class="uuid-2d1e7667-1abe-4e2d-ba02-aa5f4a500748" width="291" height="135"/>
</svg>