<?xml version="1.0" encoding="UTF-8"?>
<svg id="uuid-cdc41726-3fe7-483c-a166-b91fbe8d2ad1" data-name="BG" xmlns="http://www.w3.org/2000/svg" width="185" height="184" viewBox="0 0 185 184">
  <defs>
    <style>
      .uuid-0e5583d0-2648-4ffd-8cef-6686bf3d95cc {
        fill: none;
      }

      .uuid-38e9dbaf-32e0-484e-90e7-84d59bc268b7 {
        fill: #3c3c3b;
      }
    </style>
  </defs>
  <g>
    <g>
      <g>
        <path class="uuid-38e9dbaf-32e0-484e-90e7-84d59bc268b7" d="M42.82207,162.84071l-1.61844-2.76849c-.07142.00901-.18272.01351-.33424.01351h-2.1132v2.75498h-1.79215v-9.36191h3.90535c1.21246,0,2.14859.28052,2.8087.84284.65979.56168.98953,1.35497.98953,2.38053,0,.73089-.15827,1.35497-.47482,1.87225s-.77785.90524-1.38425,1.16324l2.0598,3.10305h-2.04629ZM38.75619,158.50751h2.1132c.67749,0,1.19477-.14734,1.55153-.44136.35644-.29403.53498-.73089.53498-1.31058,0-.57068-.17854-.99854-.53498-1.2842-.35676-.28502-.87404-.42785-1.55153-.42785h-2.1132v3.46399Z"/>
        <path class="uuid-38e9dbaf-32e0-484e-90e7-84d59bc268b7" d="M53.17351,155.68562v7.1551h-1.75194v-1.32409c-.48157.92776-1.31058,1.391-2.48765,1.391-.8023,0-1.43572-.24513-1.89895-.73539-.46388-.49026-.6955-1.15938-.6955-2.00608v-4.48054h1.75194v3.97227c0,.49927.13575.89173.40791,1.17675.27183.28566.64853.42785,1.13011.42785.55267-.00901.98985-.20524,1.31058-.5887.32105-.38281.48157-.86921.48157-1.45727v-3.5309h1.75194Z"/>
        <path class="uuid-38e9dbaf-32e0-484e-90e7-84d59bc268b7" d="M61.32489,156.09352c.51278.30754.90943.73796,1.19026,1.29063s.42142,1.19026.42142,1.91214c0,.71352-.13833,1.3421-.41466,1.88576-.27633.5443-.6688.96765-1.17707,1.27069-.50795.30303-1.09665.45487-1.76513.45487-.53498,0-1.00786-.10487-1.4177-.31462-.41016-.2091-.7489-.51471-1.01655-.91554v1.16324h-1.73875v-9.92359h1.73875v3.94524c.25864-.40083.59063-.70644.99628-.91618.40565-.2091.87597-.31397,1.41095-.31397.6688,0,1.25943.15377,1.77221.46131ZM60.60944,160.80118c.37445-.40533.56168-.92519.56168-1.55828s-.18723-1.14973-.56168-1.5512-.85603-.60157-1.4444-.60157c-.59738,0-1.08346.20009-1.45791.60157s-.56168.91811-.56168,1.5512c0,.6421.18723,1.16389.56168,1.56471.37445.40147.86053.60221,1.45791.60221.58838,0,1.06995-.20267,1.4444-.60864Z"/>
        <path class="uuid-38e9dbaf-32e0-484e-90e7-84d59bc268b7" d="M66.30019,165.06747c-.41434.29853-.90717.4478-1.47754.4478-.34775,0-.66204-.05083-.94288-.15377-.28116-.1023-.55975-.26508-.83608-.48769l.7489-1.32409c.16921.12482.32555.21618.46806.27408s.29435.08686.45487.08686c.47257,0,.82032-.24063,1.04325-.72252l.21393-.46774-2.95572-7.03478h1.80566l2.03278,5.20242,1.85906-5.20242h1.75194l-3.20985,8.05133c-.22293.58805-.54173,1.03199-.95639,1.33052Z"/>
        <path class="uuid-38e9dbaf-32e0-484e-90e7-84d59bc268b7" d="M77.05954,160.72783c.41884.41884.98052.62859,1.68503.62859.70419,0,1.25943-.20974,1.66508-.62859.40565-.41949.60864-.99854.60864-1.73907v-5.50996h1.79215v5.50996c0,.81131-.16503,1.51839-.49476,2.11996-.33006.60157-.80037,1.06352-1.41095,1.38457-.6109.32041-1.33084.48125-2.16017.48125-.83801,0-1.56697-.16085-2.18655-.48125-.6199-.32105-1.09472-.783-1.42446-1.38457-.33006-.60157-.49476-1.30865-.49476-2.11996v-5.50996h1.79215v5.50996c0,.74054.20942,1.31958.62859,1.73907Z"/>
        <path class="uuid-38e9dbaf-32e0-484e-90e7-84d59bc268b7" d="M88.01994,157.14353c-.37027-.11581-.71126-.17436-1.02331-.17436-.29403,0-.52822.05147-.70193.15377-.17404.10294-.26089.26121-.26089.47482,0,.22325.10905.39504.32781.51535.21811.12031.56361.24706,1.0365.38088.49927.15184.90943.3011,1.23048.44844.32073.14669.59931.36544.83576.65497.23612.29017.35451.67105.35451,1.1433,0,.6955-.26765,1.2308-.80262,1.60525s-1.20828.56168-2.01959.56168c-.55267,0-1.09215-.08686-1.61812-.26057-.52629-.17436-.97183-.42142-1.3376-.74247l.60189-1.21729c.32105.27666.70419.49283,1.15037.64853.44554.15634.86921.23419,1.27037.23419.32105,0,.57712-.05533.76917-.16728.19173-.11131.28759-.27859.28759-.5012,0-.24963-.11163-.43686-.33456-.56168s-.58387-.26314-1.08314-.41498c-.48157-.14219-.87404-.28245-1.17707-.42077s-.56618-.34807-.78911-.62859c-.22293-.28116-.33424-.64918-.33424-1.10341,0-.70451.25607-1.24174.76917-1.61168.51246-.36995,1.15681-.55524,1.93241-.55524.47257,0,.93838.06691,1.39776.20074.45906.13382.86696.32105,1.22372.56168l-.62859,1.25718c-.34775-.20524-.70676-.36544-1.07671-.48125Z"/>
        <path class="uuid-38e9dbaf-32e0-484e-90e7-84d59bc268b7" d="M96.86007,156.60823c.57487.65111.86246,1.56471.86246,2.74211,0,.23162-.0045.40533-.01319.52114h-5.28284c.11581.50828.35418.90782.71545,1.19734s.80455.43429,1.33084.43429c.36544,0,.71545-.06884,1.04968-.20717.33456-.13833.62634-.33649.87597-.59513l.93645.97666c-.35676.39182-.79136.69486-1.30414.9091s-1.08121.32105-1.70529.32105c-.73121,0-1.37524-.15184-1.93241-.45487-.55749-.30303-.9876-.72896-1.29063-1.27712-.30336-.54816-.45487-1.17933-.45487-1.8922,0-.71352.15377-1.34661.46163-1.89928.30754-.55267.73764-.98309,1.29063-1.29063.55267-.30754,1.18126-.46131,1.88576-.46131,1.14105,0,1.99932.32555,2.57451.97602ZM96.13111,158.70824c-.01801-.52629-.19173-.94513-.52179-1.25718-.32974-.31204-.76692-.46839-1.31058-.46839-.50828,0-.9342.15377-1.27712.46131-.34325.30754-.55524.72896-.63534,1.26425h3.74483Z"/>
        <path class="uuid-38e9dbaf-32e0-484e-90e7-84d59bc268b7" d="M101.94217,155.99959c.41466-.24513.89817-.37188,1.45116-.38088v1.68503c-.74022-.04439-1.33084.12739-1.77221.51471-.44136.38796-.66204.91232-.66204,1.57179v3.45048h-1.73843v-7.1551h1.73843v1.37749c.24095-.46324.56843-.81774.98309-1.06352Z"/>
        <path class="uuid-38e9dbaf-32e0-484e-90e7-84d59bc268b7" d="M114.30645,158.18646h1.56471v3.55728c-.49026.36609-1.06995.66204-1.73843.8898-.6688.22712-1.32409.34099-1.96619.34099-.91843,0-1.75419-.21425-2.5076-.6421s-1.34854-1.00947-1.7854-1.74551c-.43686-.73539-.65529-1.54863-.65529-2.44036s.22261-1.70111.6688-2.4275c.44554-.72703,1.05419-1.30157,1.82529-1.72556.7711-.42335,1.62519-.63502,2.56132-.63502.6688,0,1.32827.12031,1.97938.36094.65079.24063,1.21246.57068,1.68503.98953l-1.01623,1.32409c-.35676-.33842-.76917-.60157-1.23723-.78879s-.93838-.28116-1.41095-.28116c-.58838,0-1.13011.1409-1.62487.42142-.49509.28116-.88498.66655-1.17032,1.15681-.28534.4909-.42817,1.02556-.42817,1.60525,0,.58805.14508,1.12786.43493,1.61812.28952.49026.67974.87822,1.17,1.16324.49026.28566,1.03424.4285,1.63195.4285.32073,0,.65722-.05147,1.00947-.15377.35225-.10294.68874-.2477,1.00979-.43493v-2.58127Z"/>
        <path class="uuid-38e9dbaf-32e0-484e-90e7-84d59bc268b7" d="M120.59908,155.99959c.41466-.24513.89817-.37188,1.45116-.38088v1.68503c-.74022-.04439-1.33084.12739-1.77221.51471-.44136.38796-.66204.91232-.66204,1.57179v3.45048h-1.73843v-7.1551h1.73843v1.37749c.24095-.46324.56843-.81774.98309-1.06352Z"/>
        <path class="uuid-38e9dbaf-32e0-484e-90e7-84d59bc268b7" d="M128.35607,156.08645c.56586.30368,1.00722.72896,1.32377,1.27776.31655.54816.47482,1.17868.47482,1.8922,0,.72252-.15827,1.36012-.47482,1.91279s-.75791.98052-1.32377,1.28356c-.5665.30303-1.21954.45487-1.95943.45487-.7489,0-1.40902-.15184-1.97938-.45487-.57068-.30303-1.0143-.73089-1.33084-1.28356-.31655-.55267-.47482-1.19026-.47482-1.91279,0-.71352.15827-1.34403.47482-1.8922.31655-.54881.76016-.97409,1.33084-1.27776.57036-.30239,1.23048-.45423,1.97938-.45423.73989,0,1.39293.15184,1.95943.45423ZM124.92553,157.71872c-.37445.40083-.56168.92262-.56168,1.56471,0,.64146.18723,1.16324.56168,1.56471.37445.40083.86471.60157,1.4711.60157.58838,0,1.06995-.20074,1.4444-.60157.37445-.40147.56168-.92326.56168-1.56471,0-.6421-.18723-1.16389-.56168-1.56471-.37445-.40147-.85603-.60221-1.4444-.60221-.60639,0-1.09665.20074-1.4711.60221Z"/>
        <path class="uuid-38e9dbaf-32e0-484e-90e7-84d59bc268b7" d="M138.2729,155.68562v7.1551h-1.75194v-1.32409c-.48157.92776-1.31058,1.391-2.48765,1.391-.8023,0-1.43572-.24513-1.89895-.73539-.46388-.49026-.6955-1.15938-.6955-2.00608v-4.48054h1.75194v3.97227c0,.49927.13575.89173.40791,1.17675.27183.28566.64853.42785,1.13011.42785.55267-.00901.98985-.20524,1.31058-.5887.32105-.38281.48157-.86921.48157-1.45727v-3.5309h1.75194Z"/>
        <path class="uuid-38e9dbaf-32e0-484e-90e7-84d59bc268b7" d="M146.42428,156.09352c.51278.30754.90943.73796,1.19026,1.29063s.42142,1.19026.42142,1.91214c0,.71352-.13833,1.3421-.41466,1.88576-.27633.5443-.6688.96765-1.17707,1.27069-.50795.30303-1.09665.45487-1.76513.45487-.53498,0-1.00786-.10487-1.4177-.31462-.41016-.2091-.7489-.51471-1.01655-.91554v3.75802h-1.73875v-9.74987h1.73875v1.17675c.25864-.40083.59063-.70644.99628-.91618.40565-.2091.87597-.31397,1.41095-.31397.6688,0,1.25943.15377,1.77221.46131ZM145.70883,160.80118c.37445-.40533.56168-.92519.56168-1.55828s-.18723-1.14973-.56168-1.5512-.85603-.60157-1.4444-.60157c-.59738,0-1.08346.20009-1.45791.60157s-.56168.91811-.56168,1.5512c0,.6421.18723,1.16389.56168,1.56471.37445.40147.86053.60221,1.45791.60221.58838,0,1.06995-.20267,1.4444-.60864Z"/>
      </g>
      <g>
        <path class="uuid-38e9dbaf-32e0-484e-90e7-84d59bc268b7" d="M30.36032,129.42517c1.47561.78171,2.62212,1.87097,3.4389,3.26776.8171,1.39679,1.22565,2.9911,1.22565,4.78293s-.41756,3.38614-1.25203,4.78293c-.83447,1.39679-1.99868,2.48669-3.49166,3.26776-1.49362.78236-3.19763,1.17289-5.11235,1.17289h-7.66884v-18.44717h7.82679c1.87965,0,3.5576.39118,5.03353,1.17289ZM28.186,142.46982c.8171-.48318,1.45373-1.15488,1.91086-2.01637.45648-.86021.68521-1.84459.68521-2.95121s-.24191-2.09937-.72477-2.97823c-.4835-.87822-1.14233-1.55892-1.97648-2.04211-.83479-.48318-1.77896-.72445-2.83315-.72445h-3.58398v11.43683h3.76863c1.01848,0,1.93691-.24127,2.75369-.72445Z"/>
        <path class="uuid-38e9dbaf-32e0-484e-90e7-84d59bc268b7" d="M44.1957,133.0751c.79072-.4568,1.71302-.69421,2.7672-.71159v3.82107c-.1409-.01737-.35193-.02638-.63277-.02638-1.24753,0-2.23577.33842-2.96472,1.01462s-1.09343,1.57694-1.09343,2.70093v6.82568h-4.05848v-14.17766h4.05848v2.55617c.49155-.87822,1.133-1.54606,1.92372-2.00286Z"/>
        <path class="uuid-38e9dbaf-32e0-484e-90e7-84d59bc268b7" d="M60.99547,134.36637c1.18576,1.31765,1.77864,3.15324,1.77864,5.50739,0,.42206-.00901.74697-.02638.97537h-10.17226c.22808.89624.66751,1.59431,1.31765,2.09487.64982.50055,1.43186.75147,2.34546.75147.66751,0,1.30865-.12739,1.92372-.38217.61476-.25478,1.16839-.62794,1.66026-1.12014l2.13476,2.16113c-.72059.80809-1.59431,1.42703-2.62212,1.85746-1.02781.43107-2.17432.64596-3.43922.64596-1.4933,0-2.79776-.29853-3.9134-.89624-1.11595-.59706-1.97648-1.44054-2.58255-2.52979s-.9091-2.34514-.9091-3.76831c0-1.44054.30722-2.70994.92229-3.8082.61476-1.09762,1.47561-1.9501,2.58255-2.55617s2.37184-.9091,3.79501-.9091c2.28338,0,4.01859.65883,5.20467,1.97648ZM58.95304,138.45123c-.03539-.93162-.33392-1.67795-.89592-2.24027-.56264-.56232-1.30897-.84348-2.23995-.84348-.87887,0-1.61233.27666-2.2007.82997-.5887.55396-.96186,1.30479-1.11981,2.25378h6.45638Z"/>
        <path class="uuid-38e9dbaf-32e0-484e-90e7-84d59bc268b7" d="M72.60345,135.67052c-.75566-.23677-1.43218-.35579-2.02924-.35579-.49219,0-.88723.08814-1.18576.26379-.29917.17564-.44812.43943-.44812.79072,0,.38668.2017.68521.60607.89559.40405.21103,1.06287.44844,1.97648.71159,1.00143.29917,1.82722.5932,2.47736.88273.64982.29017,1.21214.72059,1.68664,1.29128.47418.57133.71126,1.32216.71126,2.25378,0,1.40516-.54012,2.49891-1.62069,3.28063-1.08025.78171-2.46385,1.17289-4.15048,1.17289-1.1597,0-2.27533-.17114-3.34689-.51407-1.07188-.34228-2.00286-.82997-2.79326-1.46242l1.31765-2.74082c.71995.56232,1.52386.99725,2.41109,1.30414.88691.30818,1.7262.46131,2.51693.46131.5443,0,.97891-.092,1.30447-.27666.32491-.18465.48736-.46131.48736-.82997,0-.40405-.20653-.71995-.61926-.94899-.41305-.22776-1.07638-.47418-1.98967-.73796-.96637-.28052-1.77028-.56168-2.41141-.84284-.64146-.28116-1.19026-.70708-1.64707-1.27841-.4568-.57068-.68521-1.31315-.68521-2.22676,0-1.40516.52725-2.49441,1.58144-3.26776,1.05387-.77271,2.38889-1.15938,4.00572-1.15938.96572,0,1.93241.1364,2.89878.40855.96604.27215,1.84459.66333,2.63531,1.17225l-1.39679,2.7672c-.77335-.43879-1.53769-.77721-2.29271-1.01462Z"/>
        <path class="uuid-38e9dbaf-32e0-484e-90e7-84d59bc268b7" d="M93.63316,127.14565v19.55379h-4.0321v-2.082c-.50988.73796-1.14233,1.29578-1.89735,1.67345-.75566.37831-1.61683.56682-2.58287.56682-1.33535,0-2.50792-.30303-3.51804-.9091-1.01044-.60607-1.79183-1.46306-2.34546-2.56968-.55331-1.10662-.82997-2.38053-.82997-3.82107,0-1.42317.27215-2.67906.81678-3.76831.5443-1.08925,1.31765-1.93273,2.31909-2.53044,1.00143-.59706,2.15213-.89559,3.45241-.89559,2.00286,0,3.53122.74697,4.58541,2.23963v-7.45749h4.0321ZM88.61282,142.4962c.65883-.72896.98824-1.67345.98824-2.83283,0-1.16003-.32941-2.10387-.98824-2.83347-.65883-.72831-1.50681-1.09311-2.54298-1.09311-1.05419,0-1.91086.3648-2.56968,1.09311-.65883.7296-.99725,1.67345-1.01462,2.83347.01737,1.15938.35579,2.10387,1.01462,2.83283s1.5155,1.09376,2.56968,1.09376c1.03617,0,1.88416-.3648,2.54298-1.09376Z"/>
        <path class="uuid-38e9dbaf-32e0-484e-90e7-84d59bc268b7" d="M109.51065,134.36637c1.18576,1.31765,1.77864,3.15324,1.77864,5.50739,0,.42206-.00901.74697-.02638.97537h-10.17226c.22808.89624.66751,1.59431,1.31765,2.09487.64982.50055,1.43186.75147,2.34546.75147.66751,0,1.30865-.12739,1.92372-.38217.61476-.25478,1.16839-.62794,1.66026-1.12014l2.13476,2.16113c-.72059.80809-1.59431,1.42703-2.62212,1.85746-1.02781.43107-2.17432.64596-3.43922.64596-1.4933,0-2.79776-.29853-3.9134-.89624-1.11595-.59706-1.97648-1.44054-2.58255-2.52979s-.9091-2.34514-.9091-3.76831c0-1.44054.30722-2.70994.92229-3.8082.61476-1.09762,1.47561-1.9501,2.58255-2.55617s2.37184-.9091,3.79501-.9091c2.28338,0,4.01859.65883,5.20467,1.97648ZM107.46822,138.45123c-.03539-.93162-.33392-1.67795-.89592-2.24027-.56264-.56232-1.30897-.84348-2.23995-.84348-.87887,0-1.61233.27666-2.2007.82997-.5887.55396-.96186,1.30479-1.11981,2.25378h6.45638Z"/>
        <path class="uuid-38e9dbaf-32e0-484e-90e7-84d59bc268b7" d="M127.21953,133.83944c.93967.98374,1.40998,2.30139,1.40998,3.95296v8.90704h-4.05848v-7.72128c0-.89624-.25028-1.60332-.75083-2.12189-.50088-.51793-1.1819-.77721-2.04243-.77721-1.00143.01801-1.79215.3648-2.37184,1.041-.57969.67684-.86954,1.54155-.86954,2.59606v6.98331h-4.05848v-14.17766h4.05848v2.47704c.98374-1.7217,2.61762-2.59992,4.90164-2.63531,1.58112,0,2.84151.49219,3.7815,1.47593Z"/>
        <path class="uuid-38e9dbaf-32e0-484e-90e7-84d59bc268b7" d="M146.39115,133.0751c.79072-.4568,1.71302-.69421,2.7672-.71159v3.82107c-.1409-.01737-.35193-.02638-.63277-.02638-1.24753,0-2.23577.33842-2.96472,1.01462s-1.09343,1.57694-1.09343,2.70093v6.82568h-4.05848v-14.17766h4.05848v2.55617c.49155-.87822,1.133-1.54606,1.92372-2.00286Z"/>
        <path class="uuid-38e9dbaf-32e0-484e-90e7-84d59bc268b7" d="M164.32392,133.299c1.01044.60607,1.79151,1.46242,2.34611,2.56904.55331,1.10727.82997,2.38117.82997,3.82171,0,1.42253-.2728,2.67456-.8171,3.7548-.54559,1.08089-1.31379,1.91986-2.30622,2.51693-.99274.59771-2.14762.89624-3.46528.89624-.98438,0-1.8581-.18851-2.62244-.56682-.76402-.37767-1.40966-.92648-1.93691-1.64707v2.05562h-4.05816v-19.55379h4.05816v7.45749c.50956-.71995,1.14651-1.26876,1.91086-1.64707.76402-.37767,1.62069-.56618,2.56936-.56618,1.31765,0,2.48122.30303,3.49166.9091ZM162.41339,142.39069c.64982-.72896.97505-1.67345.97505-2.83283,0-1.14201-.32523-2.07749-.97505-2.80645-.65014-.72896-1.49362-1.09376-2.52979-1.09376-1.03682,0-1.88448.3648-2.54331,1.09376s-.98824,1.66444-.98824,2.80645c0,1.1774.32941,2.12575.98824,2.84634s1.50649,1.08025,2.54331,1.08025c1.03617,0,1.87965-.3648,2.52979-1.09376Z"/>
        <polygon class="uuid-38e9dbaf-32e0-484e-90e7-84d59bc268b7" points="134.51932 142.66522 136.53626 142.66522 136.53626 146.69911 132.50237 146.69911 132.50237 144.68216 134.51932 142.66522"/>
      </g>
    </g>
    <rect class="uuid-0e5583d0-2648-4ffd-8cef-6686bf3d95cc" width="185" height="184"/>
  </g>
  <path class="uuid-38e9dbaf-32e0-484e-90e7-84d59bc268b7" d="M99.52884,64.24042l7.18359-16.26532-.17572-.69061-1.61334-1.23987v-9.30701l1.14355-1.14294-.00116-.81677-2.76807-2.75403-.29181-3.37256-.18927-.37909-1.97162-1.77441.15887-.52222-.06873-.48163-.83484-1.28656v-4.44171l-.08789-.30591-.6095-.9751h-.97791l-.6095.9751-.08783.30591v4.4411l-.836,1.28717-.06873.48163.15887.52222-1.97156,1.77441-.18933.37909-.29065,3.37256-2.76923,2.75403-.0011.81677,1.14349,1.14294v9.30762l-1.61218,1.23926-.21973.37573-.74438,5.21063c-6.32318,4.63348-9.34082,8.97522-10.38434,14.93445l.00116.00098-.00226.00073c-.44391,2.57996-.50476,5.33789-.50476,7.9342v2.9292l-1.67865,1.32941-.13293.75372,1.00946,1.646-2.2406,10.63458-2.39209-1.60138-.32104-.09796h-2.19128v-6.10065l.52271-.52277.16901-.40784v-2.07635l-.24109-.46869-1.95465-1.40149-1.00385-3.06787.79651-1.90381-.00226-.42877-1.22235-2.7749-.52838-.34418h-.44165l-.52728.34247-1.23474,2.7749-.00342.43048.79089,1.90381-1.08716,3.06335-1.96149,1.40601-.24109.46869v2.07635l.16901.40784.52386.52277v7.13824l-4.40057,4.57184-.16107.3999v4.51215l-2.25549,1.97498-.19714.43372v7.30273l-3.66718,4.98755.56671.90918,38.49316-6.91406.35602-.21857,14.79364-19.41949.09241-.52051-8.10406-26.15137ZM97.00406,39.36194l1.90991-1.90961,1.90967,1.90961v6.85986h-3.81958v-6.85986ZM90.73923,53.99689l7.17657,9.82062-16.67371,3.35211c1.10297-5.13373,3.9184-9.02905,9.49713-13.17273ZM67.31571,109.5716l-11.65179,5.75818,2.37518-3.23145.11267-.34137v-7.23059l2.25549-1.97498.19714-.43378v-3.83838l7.95508,3.9975-1.24377,7.29486ZM78.62919,103.98047l-10.03448,4.95911,2.80499-16.45117h2.10565l2.80188,1.87585,3.40802,9.07941-1.08606.5368ZM84.38089,101.13819l-3.62573,1.79175-3.1723-8.45148,26.28632-2.97131-19.48828,9.63104ZM77.51188,93.32477l2.29913-10.91174-.07318-.42133-.86188-1.40601,1.49615-1.18408.21857-.45178v-3.20862c0-2.20367.04395-4.52228.33459-6.72424l24.77014,21.12201-28.18353,3.18579Z"/>
</svg>