<?xml version="1.0" encoding="UTF-8" standalone="no"?>
<!-- Created with Inkscape (http://www.inkscape.org/) -->

<svg
   version="1.1"
   id="svg2"
   width="75.58667"
   height="102.26667"
   viewBox="0 0 75.58667 102.26667"
   sodipodi:docname="Logo_Dresdenrb_Pattern.eps"
   xmlns:inkscape="http://www.inkscape.org/namespaces/inkscape"
   xmlns:sodipodi="http://sodipodi.sourceforge.net/DTD/sodipodi-0.dtd"
   xmlns="http://www.w3.org/2000/svg"
   xmlns:svg="http://www.w3.org/2000/svg">
  <defs
     id="defs6" />
  <sodipodi:namedview
     id="namedview4"
     pagecolor="#ffffff"
     bordercolor="#000000"
     borderopacity="0.25"
     inkscape:showpageshadow="2"
     inkscape:pageopacity="0.0"
     inkscape:pagecheckerboard="0"
     inkscape:deskcolor="#d1d1d1" />
  <g
     id="g8"
     inkscape:groupmode="layer"
     inkscape:label="ink_ext_XXXXXX"
     transform="matrix(1.3333333,0,0,-1.3333333,0,102.26667)">
    <g
       id="g10"
       transform="scale(0.1)">
      <path
         d="M 738.859,14.7617 H 593.605 l -59.378,-64.5 132.007,-143.6717 132.004,143.6717 z"
         style="fill:none;stroke:#3f0026;stroke-width:22.0313;stroke-linecap:butt;stroke-linejoin:miter;stroke-miterlimit:10;stroke-dasharray:none;stroke-opacity:1"
         id="path12" />
      <path
         d="m 361.141,143.473 c -17.11,0 -34.239,-6.532 -47.293,-19.586 -12.227,-12.227 -19.196,-28.4886 -19.59,-45.7972 l -0.699,-142.789 140.242,0.7031 c 0.383,-0.0078 0.765,-0.0117 1.152,-0.0117 17.68,0 34.488,6.9023 47.188,19.6015 26.035,26.0313 26.121,68.2813 0.218,94.1836 -12.695,12.6954 -29.582,19.4063 -46.847,19.4063 -2.875,0 -5.754,-0.1875 -8.637,-0.5625 2.629,20.1602 -4.031,40.6719 -18.844,55.4839 -12.91,12.911 -29.89,19.364 -46.89,19.368 z m -0.004,-22.032 c 11.867,-0.003 22.988,-4.589 31.312,-12.914 9.793,-9.7887 14.375,-23.2965 12.578,-37.0543 l -3.703,-28.4024 28.399,3.7031 c 1.918,0.25 3.863,0.3789 5.789,0.3789 11.812,0 22.918,-4.6015 31.269,-12.957 8.352,-8.3515 12.942,-19.5078 12.914,-31.41405 -0.027,-11.94141 -4.691,-23.16795 -13.132,-31.60935 -8.477,-8.4805 -19.704,-13.1485 -31.61,-13.1485 l -0.777,0.0078 -0.242,0.004 h -0.246 l -117.993,-0.5899 0.59,120.3203 c 0.313,11.5313 4.973,22.3754 13.141,30.5434 8.469,8.468 19.73,13.132 31.711,13.132"
         style="fill:#3f0026;fill-opacity:1;fill-rule:nonzero;stroke:none"
         id="path14" />
      <path
         d="m 501.727,195.137 c 23.48,0 42.519,-19.039 42.519,-42.52 0,-23.484 -19.039,-42.519 -42.519,-42.519 -23.485,0 -42.52,19.035 -42.52,42.519 0,23.481 19.035,42.52 42.52,42.52 z m 0,-20 c -12.418,0 -22.52,-10.102 -22.52,-22.52 0,-12.418 10.102,-22.519 22.52,-22.519 12.418,0 22.519,10.101 22.519,22.519 0,12.418 -10.101,22.52 -22.519,22.52"
         style="fill:#3f0026;fill-opacity:1;fill-rule:nonzero;stroke:none"
         id="path16" />
      <path
         d="m 171.93,14.7617 v 0 H 26.6758 l -59.3789,-64.5 L 99.3047,-193.41 231.309,-49.7383 Z"
         style="fill:none;stroke:#3f0026;stroke-width:22.0313;stroke-linecap:butt;stroke-linejoin:miter;stroke-miterlimit:10;stroke-dasharray:none;stroke-opacity:1"
         id="path18" />
      <path
         d="m 102.027,274.836 c -0.082,0 -0.168,0 -0.25,0 H 95.9922 C 46.082,272.082 6.22656,232.227 3.47266,182.313 v -5.782 C 3.43359,161.27 7,146.211 13.8828,132.586 30.5234,99.2852 64.5508,78.2422 101.777,78.2305 c 0.082,0 0.168,0 0.25,0 15.18,0 30.145,3.5625 43.696,10.4062 l 65.922,-21.9726 -21.973,65.9219 c 6.883,13.625 10.449,28.684 10.406,43.945 -0.015,37.227 -21.055,71.25 -54.355,87.895 -13.547,6.844 -28.516,10.41 -43.696,10.41 z m 0,-22.031 c 11.672,0 23.348,-2.782 33.848,-8.086 26.004,-12.996 42.16,-39.125 42.172,-68.246 0.031,-11.735 -2.75,-23.477 -8.043,-33.953 l -4.137,-8.196 2.903,-8.707 8.039,-24.117 -24.118,8.039 -8.707,2.902 -8.195,-4.136 c -10.414,-5.262 -22.09,-8.043 -33.762,-8.043 h -0.242 c -29.0662,0.011 -55.1991,16.172 -68.2381,42.258 -5.2891,10.476 -8.0703,22.218 -8.043,34.011 v 5.137 c 2.3984,38.305 32.832,68.738 71.1367,71.137 h 5.1994 0.187"
         style="fill:#3f0026;fill-opacity:1;fill-rule:nonzero;stroke:none"
         id="path20" />
      <path
         d="m 455.395,398.25 v 0 H 310.141 L 250.762,333.75 382.77,190.078 514.773,333.75 Z"
         style="fill:none;stroke:#3f0026;stroke-width:22.0313;stroke-linecap:butt;stroke-linejoin:miter;stroke-miterlimit:10;stroke-dasharray:none;stroke-opacity:1"
         id="path22" />
      <path
         d="m 77.6758,526.961 c -17.1055,0 -34.2344,-6.531 -47.293,-19.586 C 18.1563,495.145 11.1875,478.887 10.793,461.574 l -0.7032,-142.785 140.2462,0.699 c 0.383,-0.004 0.769,-0.008 1.152,-0.008 17.68,0 34.492,6.903 47.188,19.602 26.035,26.031 26.121,68.281 0.219,94.18 -12.696,12.699 -29.586,19.41 -46.848,19.41 -2.875,0 -5.754,-0.188 -8.637,-0.563 2.629,20.161 -4.031,40.668 -18.844,55.485 -12.91,12.91 -29.8902,19.363 -46.8902,19.367 z m -0.0039,-22.035 c 11.8672,0 22.9881,-4.586 31.3161,-12.91 9.785,-9.789 14.371,-23.297 12.578,-37.059 l -3.707,-28.398 28.403,3.703 c 1.914,0.25 3.859,0.379 5.785,0.379 11.812,0 22.918,-4.602 31.269,-12.957 8.356,-8.352 12.942,-19.508 12.914,-31.414 -0.027,-11.942 -4.691,-23.168 -13.132,-31.61 -8.481,-8.48 -19.703,-13.148 -31.61,-13.148 l -0.777,0.008 -0.242,0.003 -0.242,-0.003 -117.9965,-0.59 0.5937,120.324 c 0.3047,11.531 4.9688,22.371 13.1367,30.543 8.4688,8.469 19.7344,13.133 31.711,13.129"
         style="fill:#3f0026;fill-opacity:1;fill-rule:nonzero;stroke:none"
         id="path24" />
      <path
         d="m 385.492,658.32 c -0.082,0 -0.168,0 -0.25,0 h -5.785 c -49.91,-2.754 -89.766,-42.605 -92.519,-92.519 v -5.781 c -0.04,-15.266 3.527,-30.325 10.41,-43.946 16.64,-33.301 50.668,-54.344 87.894,-54.355 0.082,0 0.168,0 0.25,0 15.18,0 30.145,3.562 43.696,10.406 l 65.917,-21.973 -21.968,65.922 c 6.879,13.621 10.449,28.68 10.406,43.946 -0.016,37.226 -21.055,71.25 -54.355,87.894 -13.547,6.844 -28.516,10.406 -43.696,10.406 z m 0,-22.027 c 11.672,0 23.348,-2.781 33.848,-8.086 26.004,-12.996 42.16,-39.125 42.172,-68.246 0.031,-11.738 -2.75,-23.481 -8.043,-33.953 l -4.137,-8.195 2.902,-8.708 8.039,-24.117 -24.117,8.039 -8.707,2.903 -8.195,-4.137 c -10.414,-5.266 -22.09,-8.043 -33.762,-8.043 h -0.242 c -29.066,0.012 -55.199,16.172 -68.238,42.254 -5.289,10.476 -8.071,22.219 -8.043,34.016 v 5.136 c 2.394,38.305 32.832,68.739 71.136,71.133 h 5.2 l 0.187,0.004"
         style="fill:#3f0026;fill-opacity:1;fill-rule:nonzero;stroke:none"
         id="path26" />
      <path
         d="m 218.262,578.625 c 23.48,0 42.519,-19.039 42.519,-42.523 0,-23.481 -19.039,-42.516 -42.519,-42.516 -23.485,0 -42.52,19.035 -42.52,42.516 0,23.484 19.035,42.523 42.52,42.523 z m 0,-20 c -12.418,0 -22.52,-10.105 -22.52,-22.523 0,-12.414 10.102,-22.516 22.52,-22.516 12.418,0 22.519,10.102 22.519,22.516 0,12.418 -10.101,22.523 -22.519,22.523"
         style="fill:#3f0026;fill-opacity:1;fill-rule:nonzero;stroke:none"
         id="path28" />
      <path
         d="M 738.859,781.734 H 593.605 L 534.227,717.238 666.234,573.566 798.238,717.238 Z"
         style="fill:none;stroke:#3f0026;stroke-width:22.0313;stroke-linecap:butt;stroke-linejoin:miter;stroke-miterlimit:10;stroke-dasharray:none;stroke-opacity:1"
         id="path30" />
      <path
         d="m 361.141,910.445 c -17.11,0 -34.239,-6.527 -47.293,-19.586 -12.227,-12.226 -19.196,-28.484 -19.59,-45.796 l -0.699,-142.786 140.242,0.7 c 0.383,-0.004 0.765,-0.008 1.152,-0.008 17.68,0 34.488,6.902 47.188,19.597 26.035,26.036 26.121,68.282 0.218,94.184 -12.695,12.699 -29.582,19.406 -46.847,19.406 -2.875,0 -5.754,-0.183 -8.637,-0.558 2.629,20.16 -4.031,40.668 -18.844,55.48 -12.91,12.914 -29.89,19.367 -46.89,19.367 z m -0.004,-22.031 c 11.867,0 22.988,-4.586 31.312,-12.91 9.793,-9.789 14.375,-23.297 12.578,-37.059 l -3.703,-28.398 28.399,3.703 c 1.918,0.25 3.863,0.375 5.789,0.375 11.812,0 22.918,-4.598 31.269,-12.953 8.352,-8.352 12.942,-19.508 12.914,-31.414 -0.027,-11.942 -4.691,-23.168 -13.132,-31.61 C 458.086,729.668 446.859,725 434.953,725 l -0.777,0.008 -0.242,0.004 -0.246,-0.004 -117.993,-0.59 0.59,120.324 c 0.313,11.531 4.973,22.371 13.141,30.539 8.469,8.473 19.73,13.137 31.711,13.133"
         style="fill:#3f0026;fill-opacity:1;fill-rule:nonzero;stroke:none"
         id="path32" />
      <path
         d="m 171.93,781.734 v 0 H 26.6758 L -32.7031,717.238 99.3047,573.566 231.309,717.238 Z"
         style="fill:none;stroke:#3f0026;stroke-width:22.0313;stroke-linecap:butt;stroke-linejoin:miter;stroke-miterlimit:10;stroke-dasharray:none;stroke-opacity:1"
         id="path34" />
    </g>
  </g>
</svg>
