<?xml version="1.0" encoding="UTF-8" standalone="no"?>
<!-- Created with Inkscape (http://www.inkscape.org/) -->

<svg
   version="1.1"
   id="svg2"
   width="246.66667"
   height="245.33333"
   viewBox="0 0 246.66667 245.33333"
   sodipodi:docname="Logo_Dresdenrb_Voll_4c_icon.svg"
   inkscape:version="1.2.2 (b0a8486541, 2022-12-01)"
   xmlns:inkscape="http://www.inkscape.org/namespaces/inkscape"
   xmlns:sodipodi="http://sodipodi.sourceforge.net/DTD/sodipodi-0.dtd"
   xmlns="http://www.w3.org/2000/svg"
   xmlns:svg="http://www.w3.org/2000/svg">
  <defs
     id="defs6" />
  <sodipodi:namedview
     id="namedview4"
     pagecolor="#ffffff"
     bordercolor="#000000"
     borderopacity="0.25"
     inkscape:showpageshadow="2"
     inkscape:pageopacity="0.0"
     inkscape:pagecheckerboard="0"
     inkscape:deskcolor="#d1d1d1"
     showgrid="false"
     inkscape:zoom="4.1861414"
     inkscape:cx="85.2814"
     inkscape:cy="125.0555"
     inkscape:window-width="2560"
     inkscape:window-height="1371"
     inkscape:window-x="0"
     inkscape:window-y="32"
     inkscape:window-maximized="1"
     inkscape:current-layer="g12">
    <inkscape:page
       x="0"
       y="0"
       id="page8"
       width="246.66667"
       height="245.33333" />
  </sodipodi:namedview>
  <g
     id="g10"
     inkscape:groupmode="layer"
     inkscape:label="Page 1"
     transform="matrix(1.3333333,0,0,-1.3333333,0,245.33333)">
    <g
       id="g12"
       transform="scale(0.1)">
      <path
         d="M 1018.508,1001.7105 832.84,964.38052 1100.92,735.78352 Z"
         style="fill:#b01419;fill-opacity:1;fill-rule:nonzero;stroke:none"
         id="path14" />
      <path
         d="m 736.004,722.17752 -31.051,-182.078 127.16,62.84 -36.89,98.285 -31.282,20.953 h -27.937"
         style="fill:#ed1c24;fill-opacity:1;fill-rule:nonzero;stroke:none"
         id="path16" />
      <path
         d="m 1018.508,1269.7605 19.102,-19.1 v -68.6 h -38.2 v 68.6 z m 54.812,-87.7 v 99.18 l 13.24,13.23 -29.44,29.29 -3.12,36.15 -22.65,20.38 2.68,8.81 -9.374,14.42 v 46.54 l -6.148,9.84 -6.149,-9.84 v -46.54 l -9.379,-14.42 2.68,-8.81 -22.648,-20.38 -3.117,-36.15 -29.442,-29.29 13.238,-13.23 v -99.18 l -18.543,-14.25 -7.843,-54.97 81.203,-111.13 73.362,166.1 -18.55,14.25"
         style="fill:#ed1c24;fill-opacity:1;fill-rule:nonzero;stroke:none"
         id="path18" />
      <path
         d="m 832.84,964.38052 185.668,37.32998 -81.203,111.13 c -69.035,-50.09 -95.047,-94.69 -104.465,-148.45998"
         style="fill:#f25564;fill-opacity:1;fill-rule:nonzero;stroke:none"
         id="path20" />
      <path
         d="m 1100.92,735.78352 -537.611,-265.684 388.359,69.762 z"
         style="fill:#5f080b;fill-opacity:1;fill-rule:nonzero;stroke:none"
         id="path22" />
      <path
         d="m 795.223,701.22452 305.697,34.559 -268.807,-132.844 z"
         style="fill:#f25564;fill-opacity:1;fill-rule:nonzero;stroke:none"
         id="path24" />
      <path
         d="m 1100.92,735.78352 v 0 l -268.08,228.597 c -4.11,-23.91 -5.012,-49.78 -5.012,-79.06 v -32.37 l -19.137,-15.16 11.395,-18.58 -24.863,-117.986 305.697,34.559 v 0"
         style="fill:#ed1c24;fill-opacity:1;fill-rule:nonzero;stroke:none"
         id="path26" />
      <path
         d="m 626.184,667.36952 v -48.161 l -24.739,-21.66 v -75.59 l -38.136,-51.859 141.644,70 v 0 l 13.774,80.762 -92.543,46.508"
         style="fill:#f25564;fill-opacity:1;fill-rule:nonzero;stroke:none"
         id="path28" />
      <path
         d="m 721.723,835.12052 -11.399,34.84 8.887,20.93 -12.332,27.99 -4.457,0.01 -12.453,-28 8.859,-20.93 -12.336,-34.84 -21.265,-15.23 v -20.955 l 6.984,-6.984 v -76.758 l -46.027,-47.824 92.543,-46.508 17.277,101.316 v 69.774 l 6.984,6.984 v 20.955 l -21.265,15.23"
         style="fill:#b01419;fill-opacity:1;fill-rule:nonzero;stroke:none"
         id="path30" />
    </g>
  </g>
</svg>
